<svg viewBox="0 0 18.44 14.18" xmlns="http://www.w3.org/2000/svg">
    <path d="M9.574,0.024c-0,-0.016 0.008,-0.024 0.024,-0.024l0.414,0c0.016,0 0.024,0.008 0.024,0.024l0,0.027c0,0.016 -0.008,0.024 -0.024,0.024l-0.414,0c-0.016,0 -0.024,-0.008 -0.024,-0.024l-0,-0.027Z" fill="#d2232a"/>
    <path d="M10.136,0.024c0,-0.016 0.008,-0.024 0.025,-0.024l0.413,0c0.017,0 0.025,0.008 0.025,0.024l-0,0.027c-0,0.016 -0.008,0.024 -0.025,0.024l-0.413,0c-0.017,0 -0.025,-0.008 -0.025,-0.024l0,-0.027Z" fill="#d2232a"/>
    <path d="M10.699,0.024c-0,-0.016 0.008,-0.024 0.024,-0.024l0.414,0c0.016,0 0.024,0.008 0.024,0.024l0,0.027c0,0.016 -0.008,0.024 -0.024,0.024l-0.414,0c-0.016,0 -0.024,-0.008 -0.024,-0.024l-0,-0.027Z" fill="#d2232a"/>
    <path d="M1.137,1.024c-0,-0.016 0.008,-0.024 0.024,-0.024l0.414,-0c0.016,-0 0.024,0.008 0.024,0.024l0,0.027c0,0.016 -0.008,0.024 -0.024,0.024l-0.414,0c-0.016,0 -0.024,-0.008 -0.024,-0.024l-0,-0.027Z" fill="#d2232a"/>
    <path d="M1.699,1.024c0,-0.016 0.008,-0.024 0.025,-0.024l0.413,-0c0.017,-0 0.025,0.008 0.025,0.024l-0,0.027c-0,0.016 -0.008,0.024 -0.025,0.024l-0.413,0c-0.017,0 -0.025,-0.008 -0.025,-0.024l0,-0.027Z" fill="#d2232a"/>
    <path d="M2.262,1.024c-0,-0.016 0.008,-0.024 0.024,-0.024l0.414,-0c0.016,-0 0.024,0.008 0.024,0.024l0,0.027c0,0.016 -0.008,0.024 -0.024,0.024l-0.414,0c-0.016,0 -0.024,-0.008 -0.024,-0.024l-0,-0.027Z" fill="#d2232a"/>
    <path d="M2.824,0.631c0,-0.017 0.008,-0.026 0.025,-0.026l0.413,0c0.017,0 0.025,0.009 0.025,0.025l-0,0.026c-0,0.016 -0.008,0.025 -0.025,0.025l-0.413,-0c-0.017,-0 -0.025,-0.009 -0.025,-0.025l0,-0.025Zm0,0.224c0,-0.017 0.008,-0.025 0.025,-0.025l0.413,-0c0.017,-0 0.025,0.008 0.025,0.024l-0,0.027c-0,0.016 -0.008,0.024 -0.025,0.024l-0.413,0c-0.017,0 -0.025,-0.008 -0.025,-0.024l0,-0.026Z" fill="#d2232a"/>
    <path d="M3.387,0.631c-0,-0.017 0.008,-0.026 0.024,-0.026l0.414,0c0.016,0 0.024,0.009 0.024,0.025l0,0.026c0,0.016 -0.008,0.025 -0.024,0.025l-0.414,-0c-0.016,-0 -0.024,-0.009 -0.024,-0.025l-0,-0.025Zm-0,0.224c-0,-0.017 0.008,-0.025 0.024,-0.025l0.414,-0c0.016,-0 0.024,0.008 0.024,0.024l0,0.027c0,0.016 -0.008,0.024 -0.024,0.024l-0.414,0c-0.016,0 -0.024,-0.008 -0.024,-0.024l-0,-0.026Z" fill="#d2232a"/>
    <path d="M3.949,0.631c-0,-0.017 0.008,-0.026 0.024,-0.026l0.414,0c0.017,0 0.025,0.009 0.025,0.025l-0,0.026c-0,0.016 -0.008,0.025 -0.025,0.025l-0.414,-0c-0.016,-0 -0.024,-0.009 -0.024,-0.025l-0,-0.025Zm-0,0.224c-0,-0.017 0.008,-0.025 0.024,-0.025l0.414,-0c0.017,-0 0.025,0.008 0.025,0.024l-0,0.027c-0,0.016 -0.008,0.024 -0.025,0.024l-0.414,0c-0.016,0 -0.024,-0.008 -0.024,-0.024l-0,-0.026Z" fill="#d2232a"/>
    <path d="M4.511,0.631c0,-0.017 0.009,-0.026 0.025,-0.026l0.414,0c0.016,0 0.024,0.009 0.024,0.025l0,0.026c0,0.016 -0.008,0.025 -0.024,0.025l-0.414,-0c-0.016,-0 -0.025,-0.009 -0.025,-0.025l0,-0.025Zm0,0.224c0,-0.017 0.009,-0.025 0.025,-0.025l0.414,-0c0.016,-0 0.024,0.008 0.024,0.024l0,0.027c0,0.016 -0.008,0.024 -0.024,0.024l-0.414,0c-0.016,0 -0.025,-0.008 -0.025,-0.024l0,-0.026Z" fill="#d2232a"/>
    <path d="M5.074,0.631c-0,-0.017 0.008,-0.026 0.024,-0.026l0.414,0c0.016,0 0.025,0.009 0.025,0.025l-0,0.026c-0,0.016 -0.009,0.025 -0.025,0.025l-0.414,-0c-0.016,-0 -0.024,-0.009 -0.024,-0.025l-0,-0.025Zm-0,0.224c-0,-0.017 0.008,-0.025 0.024,-0.025l0.414,-0c0.016,-0 0.025,0.008 0.025,0.024l-0,0.027c-0,0.016 -0.009,0.024 -0.025,0.024l-0.414,0c-0.016,0 -0.024,-0.008 -0.024,-0.024l-0,-0.026Z" fill="#d2232a"/>
    <path d="M5.636,0.631c0,-0.017 0.009,-0.026 0.025,-0.026l0.414,0c0.016,0 0.024,0.009 0.024,0.025l0,0.026c0,0.016 -0.008,0.025 -0.024,0.025l-0.414,-0c-0.016,-0 -0.025,-0.009 -0.025,-0.025l0,-0.025Zm0,0.224c0,-0.017 0.009,-0.025 0.025,-0.025l0.414,-0c0.016,-0 0.024,0.008 0.024,0.024l0,0.027c0,0.016 -0.008,0.024 -0.024,0.024l-0.414,0c-0.016,0 -0.025,-0.008 -0.025,-0.024l0,-0.026Z" fill="#d2232a"/>
    <path d="M6.199,1.024c-0,-0.016 0.008,-0.024 0.024,-0.024l0.414,-0c0.016,-0 0.025,0.008 0.025,0.024l-0,0.027c-0,0.016 -0.009,0.024 -0.025,0.024l-0.414,0c-0.016,0 -0.024,-0.008 -0.024,-0.024l-0,-0.027Z" fill="#d2232a"/>
    <path d="M6.761,1.024c0,-0.016 0.008,-0.024 0.025,-0.024l0.414,-0c0.016,-0 0.024,0.008 0.024,0.024l-0,0.027c-0,0.016 -0.008,0.024 -0.024,0.024l-0.414,0c-0.017,0 -0.025,-0.008 -0.025,-0.024l0,-0.027Z" fill="#d2232a"/>
    <path d="M7.324,1.024c-0,-0.016 0.008,-0.024 0.024,-0.024l0.414,-0c0.016,-0 0.024,0.008 0.024,0.024l0,0.027c0,0.016 -0.008,0.024 -0.024,0.024l-0.414,0c-0.016,0 -0.024,-0.008 -0.024,-0.024l-0,-0.027Z" fill="#d2232a"/>
    <path d="M7.886,1.024c0,-0.016 0.008,-0.024 0.025,-0.024l0.413,-0c0.017,-0 0.025,0.008 0.025,0.024l-0,0.027c-0,0.016 -0.008,0.024 -0.025,0.024l-0.413,0c-0.017,0 -0.025,-0.008 -0.025,-0.024l0,-0.027Z" fill="#d2232a"/>
    <path d="M8.449,0.631c-0,-0.017 0.008,-0.026 0.024,-0.026l0.414,0c0.016,0 0.024,0.009 0.024,0.025l0,0.026c0,0.016 -0.008,0.025 -0.024,0.025l-0.414,-0c-0.016,-0 -0.024,-0.009 -0.024,-0.025l-0,-0.025Zm-0,0.224c-0,-0.017 0.008,-0.025 0.024,-0.025l0.414,-0c0.016,-0 0.024,0.008 0.024,0.024l0,0.027c0,0.016 -0.008,0.024 -0.024,0.024l-0.414,0c-0.016,0 -0.024,-0.008 -0.024,-0.024l-0,-0.026Z" fill="#d2232a"/>
    <path d="M9.012,0.743c0,-0.017 0.008,-0.025 0.025,-0.025l0.413,-0c0.017,-0 0.025,0.008 0.025,0.024l-0,0.026c-0,0.017 -0.008,0.025 -0.025,0.025l-0.413,-0c-0.017,-0 -0.025,-0.008 -0.025,-0.025l0,-0.025Z" fill="#f5841f"/>
    <path d="M9.575,0.743c-0,-0.017 0.008,-0.025 0.024,-0.025l0.414,-0c0.016,-0 0.024,0.008 0.024,0.024l0,0.026c0,0.017 -0.008,0.025 -0.024,0.025l-0.414,-0c-0.016,-0 -0.024,-0.008 -0.024,-0.025l-0,-0.025Z" fill="#fdba12"/>
    <path d="M10.137,0.743c0,-0.017 0.008,-0.025 0.025,-0.025l0.413,-0c0.017,-0 0.025,0.008 0.025,0.024l-0,0.026c-0,0.017 -0.008,0.025 -0.025,0.025l-0.413,-0c-0.017,-0 -0.025,-0.008 -0.025,-0.025l0,-0.025Z" fill="#f5841f"/>
    <path d="M10.699,0.631c-0,-0.017 0.008,-0.026 0.024,-0.026l0.414,0c0.016,0 0.024,0.009 0.024,0.025l0,0.026c0,0.016 -0.008,0.025 -0.024,0.025l-0.414,-0c-0.016,-0 -0.024,-0.009 -0.024,-0.025l-0,-0.025Zm-0,0.224c-0,-0.017 0.008,-0.025 0.024,-0.025l0.414,-0c0.016,-0 0.024,0.008 0.024,0.024l0,0.027c0,0.016 -0.008,0.024 -0.024,0.024l-0.414,0c-0.016,0 -0.024,-0.008 -0.024,-0.024l-0,-0.026Z" fill="#f5841f"/>
    <path d="M11.331,1.105c0.054,-0.01 0.101,-0.033 0.143,-0.067c0.041,-0.035 0.074,-0.078 0.097,-0.131c0.024,-0.053 0.035,-0.111 0.035,-0.176c0,-0.064 -0.011,-0.123 -0.035,-0.175c-0.023,-0.053 -0.056,-0.097 -0.097,-0.131c-0.042,-0.035 -0.089,-0.057 -0.143,-0.068c-0.013,-0.002 -0.019,-0.009 -0.019,-0.021c-0,-0.003 0,-0.006 0.001,-0.008l0.006,-0.027c0.002,-0.016 0.012,-0.022 0.029,-0.019c0.067,0.014 0.127,0.042 0.178,0.083c0.052,0.042 0.092,0.094 0.121,0.157c0.029,0.064 0.043,0.133 0.043,0.209c0,0.077 -0.014,0.146 -0.043,0.209c-0.029,0.063 -0.069,0.116 -0.121,0.158c-0.051,0.041 -0.111,0.069 -0.178,0.083l-0.008,0.001c-0.011,-0 -0.018,-0.007 -0.021,-0.02l-0.006,-0.027c-0.001,-0.002 -0.001,-0.005 -0.001,-0.008c-0,-0.013 0.006,-0.02 0.019,-0.022Z" fill="#d2232a"/>
    <path d="M0.407,1.334c0.005,-0.009 0.012,-0.014 0.019,-0.014c0.004,0 0.009,0.001 0.013,0.003l0.032,0.016c0.009,0.005 0.013,0.011 0.013,0.019c0,0.003 -0.001,0.008 -0.003,0.013l-0.404,0.806c-0.005,0.01 -0.011,0.014 -0.019,0.014c-0.004,0 -0.008,-0.001 -0.013,-0.003l-0.031,-0.015c-0.009,-0.006 -0.014,-0.012 -0.014,-0.02c-0,-0.003 0.001,-0.007 0.003,-0.013l0.404,-0.806Z" fill="#d2232a"/>
    <path d="M1.066,1.366c0,0.016 -0.008,0.024 -0.024,0.024l-0.195,0l0,0.585c0,0.017 -0.008,0.025 -0.024,0.025l-0.035,-0c-0.016,-0 -0.024,-0.008 -0.024,-0.025l-0,-0.585l-0.195,0c-0.015,0 -0.023,-0.008 -0.023,-0.024l-0,-0.025c-0,-0.017 0.008,-0.025 0.024,-0.025l0.472,0c0.016,0 0.024,0.008 0.024,0.025l0,0.025Z" fill="#d2232a"/>
    <path d="M8.358,2.14c0.002,0.006 0.003,0.01 0.003,0.013c-0,0.008 -0.005,0.014 -0.014,0.02l-0.031,0.015c-0.005,0.002 -0.009,0.003 -0.013,0.003c-0.008,0 -0.014,-0.004 -0.02,-0.014l-0.404,-0.806c-0.002,-0.005 -0.003,-0.01 -0.003,-0.013c0,-0.008 0.005,-0.014 0.014,-0.019l0.031,-0.016c0.005,-0.002 0.009,-0.003 0.013,-0.003c0.008,0 0.015,0.005 0.02,0.014l0.404,0.806Z" fill="#d2232a"/>
    <path d="M8.449,2.024c-0,-0.016 0.008,-0.024 0.024,-0.024l0.414,-0c0.016,-0 0.024,0.008 0.024,0.024l0,0.027c0,0.016 -0.008,0.024 -0.024,0.024l-0.414,-0c-0.016,-0 -0.024,-0.008 -0.024,-0.024l-0,-0.027Z" fill="#d2232a"/>
    <path d="M9.012,1.743c0,-0.017 0.008,-0.025 0.025,-0.025l0.413,-0c0.017,-0 0.025,0.008 0.025,0.024l-0,0.026c-0,0.017 -0.008,0.025 -0.025,0.025l-0.413,-0c-0.017,-0 -0.025,-0.008 -0.025,-0.025l0,-0.025Z" fill="#fdba12"/>
    <path d="M9.575,1.743c-0,-0.017 0.008,-0.025 0.024,-0.025l0.414,-0c0.016,-0 0.024,0.008 0.024,0.024l0,0.026c0,0.017 -0.008,0.025 -0.024,0.025l-0.414,-0c-0.016,-0 -0.024,-0.008 -0.024,-0.025l-0,-0.025Z" fill="#fdba12"/>
    <path d="M10.136,1.631c0,-0.017 0.008,-0.026 0.025,-0.026l0.413,0c0.017,0 0.025,0.008 0.025,0.025l-0,0.026c-0,0.016 -0.008,0.024 -0.025,0.024l-0.413,0c-0.017,0 -0.025,-0.008 -0.025,-0.024l0,-0.025Zm0,0.224c0,-0.017 0.008,-0.025 0.025,-0.025l0.413,-0c0.017,-0 0.025,0.008 0.025,0.024l-0,0.027c-0,0.016 -0.008,0.024 -0.025,0.024l-0.413,0c-0.017,0 -0.025,-0.008 -0.025,-0.024l0,-0.026Z" fill="#fdba12"/>
    <path d="M10.699,1.631c-0,-0.017 0.008,-0.026 0.024,-0.026l0.414,0c0.016,0 0.024,0.008 0.024,0.025l0,0.026c0,0.016 -0.008,0.024 -0.024,0.024l-0.414,0c-0.016,0 -0.024,-0.008 -0.024,-0.024l-0,-0.025Zm-0,0.224c-0,-0.017 0.008,-0.025 0.024,-0.025l0.414,-0c0.016,-0 0.024,0.008 0.024,0.024l0,0.027c0,0.016 -0.008,0.024 -0.024,0.024l-0.414,0c-0.016,0 -0.024,-0.008 -0.024,-0.024l-0,-0.026Z" fill="#f5841f"/>
    <path d="M11.261,1.631c0,-0.017 0.008,-0.026 0.024,-0.026l0.414,0c0.017,0 0.025,0.008 0.025,0.025l-0,0.026c-0,0.016 -0.008,0.024 -0.025,0.024l-0.414,0c-0.016,0 -0.024,-0.008 -0.024,-0.024l0,-0.025Zm0,0.224c0,-0.017 0.008,-0.025 0.024,-0.025l0.414,-0c0.017,-0 0.025,0.008 0.025,0.024l-0,0.027c-0,0.016 -0.008,0.024 -0.025,0.024l-0.414,0c-0.016,0 -0.024,-0.008 -0.024,-0.024l0,-0.026Z" fill="#f5841f"/>
    <path d="M11.894,2.105c0.053,-0.01 0.101,-0.033 0.142,-0.067c0.042,-0.035 0.074,-0.078 0.098,-0.131c0.023,-0.053 0.035,-0.111 0.035,-0.176c-0,-0.064 -0.012,-0.123 -0.035,-0.176c-0.024,-0.052 -0.056,-0.096 -0.098,-0.13c-0.041,-0.035 -0.089,-0.057 -0.142,-0.068c-0.013,-0.002 -0.02,-0.009 -0.02,-0.021c0,-0.003 0.001,-0.006 0.001,-0.008l0.006,-0.027c0.003,-0.016 0.013,-0.022 0.03,-0.019c0.067,0.014 0.126,0.041 0.178,0.083c0.051,0.042 0.091,0.094 0.12,0.157c0.029,0.063 0.044,0.133 0.044,0.209c-0,0.076 -0.015,0.146 -0.044,0.209c-0.029,0.063 -0.069,0.116 -0.12,0.157c-0.052,0.042 -0.111,0.07 -0.178,0.083l-0.008,0.001c-0.011,0 -0.019,-0.006 -0.022,-0.019l-0.006,-0.027c-0,-0.002 -0.001,-0.005 -0.001,-0.008c0,-0.013 0.007,-0.02 0.02,-0.022Z" fill="#d2232a"/>
    <path d="M0.422,3.099c0.016,0 0.024,0.008 0.024,0.025l0,0.025c0,0.016 -0.008,0.024 -0.024,0.024l-0.289,0c-0.016,0 -0.024,-0.008 -0.024,-0.024l-0,-0.857c-0,-0.017 0.008,-0.025 0.024,-0.025l0.289,0c0.016,0 0.024,0.008 0.024,0.025l0,0.025c0,0.016 -0.008,0.025 -0.024,0.025l-0.23,-0l-0,0.757l0.23,0Z" fill="#d2232a"/>
    <path d="M1.608,3.14c0.002,0.005 0.003,0.01 0.003,0.013c0,0.008 -0.004,0.014 -0.014,0.019l-0.031,0.016c-0.004,0.002 -0.009,0.003 -0.013,0.003c-0.007,0 -0.014,-0.005 -0.019,-0.014l-0.404,-0.806c-0.002,-0.005 -0.003,-0.01 -0.003,-0.013c-0,-0.008 0.004,-0.014 0.014,-0.019l0.031,-0.016c0.004,-0.002 0.009,-0.003 0.013,-0.003c0.007,0 0.014,0.005 0.019,0.014l0.404,0.806Z" fill="#d2232a"/>
    <path d="M2.654,3.105c0.013,0.002 0.019,0.009 0.019,0.022c0,0.003 0,0.005 -0.001,0.007l-0.005,0.028c-0.003,0.015 -0.013,0.022 -0.03,0.018c-0.067,-0.013 -0.126,-0.041 -0.178,-0.083c-0.051,-0.041 -0.092,-0.094 -0.121,-0.157c-0.029,-0.063 -0.043,-0.133 -0.043,-0.209c-0,-0.076 0.014,-0.146 0.043,-0.209c0.029,-0.063 0.07,-0.115 0.121,-0.157c0.052,-0.042 0.111,-0.069 0.178,-0.083l0.008,-0.001c0.011,-0 0.018,0.006 0.022,0.02l0.005,0.027c0.001,0.002 0.001,0.004 0.001,0.008c0,0.012 -0.006,0.019 -0.019,0.021c-0.054,0.011 -0.101,0.033 -0.142,0.068c-0.042,0.034 -0.074,0.078 -0.098,0.13c-0.023,0.053 -0.035,0.112 -0.035,0.176c-0,0.065 0.012,0.123 0.035,0.176c0.024,0.053 0.056,0.096 0.098,0.131c0.041,0.034 0.088,0.057 0.142,0.067Z" fill="#f5841f"/>
    <path d="M3.056,2.306c0.059,0 0.107,0.022 0.143,0.065c0.036,0.043 0.054,0.104 0.054,0.182l0,0.209c0,0.079 -0.018,0.14 -0.054,0.183c-0.036,0.043 -0.084,0.064 -0.143,0.064c-0.059,0 -0.107,-0.021 -0.144,-0.064c-0.036,-0.042 -0.055,-0.103 -0.055,-0.183l0,-0.209c0,-0.079 0.019,-0.14 0.055,-0.183c0.037,-0.042 0.085,-0.064 0.144,-0.064Zm-0,0.629c0.032,0 0.06,-0.015 0.082,-0.046c0.021,-0.031 0.032,-0.073 0.032,-0.127l0,-0.209c0,-0.053 -0.011,-0.095 -0.032,-0.126c-0.022,-0.031 -0.05,-0.046 -0.082,-0.046c-0.033,-0 -0.061,0.015 -0.083,0.046c-0.022,0.032 -0.033,0.074 -0.033,0.126l0,0.209c0,0.053 0.011,0.095 0.033,0.126c0.022,0.032 0.05,0.047 0.083,0.047Z" fill="#fdba12"/>
    <path d="M3.457,3.105c0.053,-0.01 0.101,-0.033 0.142,-0.067c0.042,-0.035 0.074,-0.078 0.098,-0.131c0.023,-0.053 0.035,-0.111 0.035,-0.176c-0,-0.064 -0.012,-0.123 -0.035,-0.176c-0.024,-0.052 -0.056,-0.096 -0.098,-0.13c-0.041,-0.035 -0.089,-0.057 -0.142,-0.068c-0.013,-0.002 -0.02,-0.009 -0.02,-0.021c0,-0.004 0.001,-0.006 0.001,-0.008l0.006,-0.027c0.003,-0.016 0.013,-0.022 0.03,-0.019c0.067,0.014 0.126,0.041 0.178,0.083c0.051,0.042 0.091,0.094 0.12,0.157c0.029,0.063 0.044,0.133 0.044,0.209c-0,0.076 -0.015,0.146 -0.044,0.209c-0.029,0.063 -0.069,0.116 -0.12,0.157c-0.052,0.042 -0.111,0.07 -0.178,0.083l-0.008,0.001c-0.011,0 -0.019,-0.006 -0.022,-0.019l-0.006,-0.028c-0,-0.002 -0.001,-0.004 -0.001,-0.007c0,-0.013 0.007,-0.02 0.02,-0.022Z" fill="#f5841f"/>
    <path d="M6.108,3.14c0.002,0.005 0.003,0.01 0.003,0.013c-0,0.008 -0.005,0.014 -0.014,0.019l-0.031,0.016c-0.005,0.002 -0.009,0.003 -0.013,0.003c-0.008,0 -0.014,-0.005 -0.019,-0.014l-0.404,-0.806c-0.002,-0.005 -0.003,-0.01 -0.003,-0.013c-0,-0.008 0.004,-0.014 0.013,-0.019l0.032,-0.016c0.004,-0.002 0.008,-0.003 0.012,-0.003c0.008,0 0.015,0.005 0.02,0.014l0.404,0.806Z" fill="#d2232a"/>
    <path d="M6.653,2.699c0.015,-0 0.022,0.008 0.022,0.025c0,0.045 -0.01,0.08 -0.032,0.103c-0.021,0.024 -0.051,0.036 -0.091,0.036c-0.022,-0 -0.045,-0.007 -0.07,-0.021c-0.026,-0.014 -0.052,-0.034 -0.078,-0.06c-0.04,-0.04 -0.071,-0.06 -0.095,-0.06c-0.015,0 -0.026,0.006 -0.034,0.017c-0.009,0.012 -0.013,0.029 -0.013,0.051c0,0.014 -0.008,0.021 -0.026,0.021l-0.027,0c-0.016,0 -0.024,-0.008 -0.024,-0.025c0,-0.044 0.011,-0.079 0.032,-0.103c0.022,-0.024 0.053,-0.036 0.092,-0.036c0.021,0 0.045,0.007 0.07,0.022c0.026,0.014 0.052,0.034 0.078,0.06c0.04,0.04 0.071,0.06 0.095,0.06c0.015,-0 0.026,-0.006 0.034,-0.018c0.008,-0.012 0.012,-0.028 0.012,-0.051c-0,-0.006 0.002,-0.011 0.007,-0.015c0.004,-0.004 0.011,-0.006 0.019,-0.006l0.029,-0Z" fill="#d2232a"/>
    <path d="M9.483,3.14c0.002,0.005 0.003,0.01 0.003,0.013c-0,0.008 -0.005,0.014 -0.014,0.019l-0.031,0.016c-0.005,0.002 -0.009,0.003 -0.013,0.003c-0.008,0 -0.014,-0.005 -0.02,-0.014l-0.404,-0.806c-0.002,-0.005 -0.003,-0.01 -0.003,-0.013c0,-0.008 0.005,-0.014 0.014,-0.019l0.031,-0.016c0.005,-0.002 0.009,-0.003 0.013,-0.003c0.008,0 0.014,0.005 0.02,0.014l0.404,0.806Z" fill="#d2232a"/>
    <path d="M9.574,3.024c-0,-0.016 0.008,-0.024 0.024,-0.024l0.414,-0c0.016,-0 0.024,0.008 0.024,0.024l0,0.026c0,0.017 -0.008,0.025 -0.024,0.025l-0.414,-0c-0.016,-0 -0.024,-0.008 -0.024,-0.025l-0,-0.026Z" fill="#d2232a"/>
    <path d="M10.137,2.743c0,-0.017 0.008,-0.026 0.025,-0.026l0.413,0c0.017,0 0.025,0.009 0.025,0.025l-0,0.026c-0,0.017 -0.008,0.025 -0.025,0.025l-0.413,-0c-0.017,-0 -0.025,-0.008 -0.025,-0.025l0,-0.025Z" fill="#fdba12"/>
    <path d="M10.699,2.631c-0,-0.017 0.008,-0.026 0.024,-0.026l0.414,0c0.016,0 0.024,0.008 0.024,0.025l0,0.026c0,0.016 -0.008,0.024 -0.024,0.024l-0.414,0c-0.016,0 -0.024,-0.008 -0.024,-0.024l-0,-0.025Zm-0,0.224c-0,-0.017 0.008,-0.025 0.024,-0.025l0.414,-0c0.016,-0 0.024,0.008 0.024,0.024l0,0.027c0,0.016 -0.008,0.024 -0.024,0.024l-0.414,-0c-0.016,-0 -0.024,-0.008 -0.024,-0.024l-0,-0.026Z" fill="#fdba12"/>
    <path d="M11.261,2.631c0,-0.017 0.008,-0.026 0.024,-0.026l0.414,0c0.017,0 0.025,0.008 0.025,0.025l-0,0.026c-0,0.016 -0.008,0.024 -0.025,0.024l-0.414,0c-0.016,0 -0.024,-0.008 -0.024,-0.024l0,-0.025Zm0,0.224c0,-0.017 0.008,-0.025 0.024,-0.025l0.414,-0c0.017,-0 0.025,0.008 0.025,0.024l-0,0.027c-0,0.016 -0.008,0.024 -0.025,0.024l-0.414,-0c-0.016,-0 -0.024,-0.008 -0.024,-0.024l0,-0.026Z" fill="#f5841f"/>
    <path d="M11.894,3.105c0.053,-0.01 0.101,-0.033 0.142,-0.067c0.042,-0.035 0.074,-0.078 0.098,-0.131c0.023,-0.053 0.035,-0.111 0.035,-0.176c-0,-0.064 -0.012,-0.123 -0.035,-0.176c-0.024,-0.052 -0.056,-0.096 -0.098,-0.13c-0.041,-0.035 -0.089,-0.057 -0.142,-0.068c-0.013,-0.002 -0.02,-0.009 -0.02,-0.021c0,-0.004 0.001,-0.006 0.001,-0.008l0.006,-0.027c0.003,-0.016 0.013,-0.022 0.03,-0.019c0.067,0.014 0.126,0.041 0.178,0.083c0.051,0.042 0.091,0.094 0.12,0.157c0.029,0.063 0.044,0.133 0.044,0.209c-0,0.076 -0.015,0.146 -0.044,0.209c-0.029,0.063 -0.069,0.116 -0.12,0.157c-0.052,0.042 -0.111,0.07 -0.178,0.083l-0.008,0.001c-0.011,0 -0.019,-0.006 -0.022,-0.019l-0.006,-0.028c-0,-0.002 -0.001,-0.004 -0.001,-0.007c0,-0.013 0.007,-0.02 0.02,-0.022Z" fill="#d2232a"/>
    <path d="M1.046,4.14c0.002,0.005 0.003,0.01 0.003,0.013c-0,0.008 -0.005,0.014 -0.014,0.019l-0.031,0.016c-0.005,0.002 -0.009,0.003 -0.013,0.003c-0.008,-0 -0.014,-0.005 -0.02,-0.014l-0.404,-0.806c-0.002,-0.006 -0.003,-0.01 -0.003,-0.013c0,-0.008 0.005,-0.014 0.014,-0.02l0.031,-0.015c0.005,-0.002 0.009,-0.003 0.013,-0.003c0.008,-0 0.014,0.004 0.02,0.014l0.404,0.806Z" fill="#d2232a"/>
    <path d="M4.907,3.334c0.005,-0.01 0.011,-0.014 0.019,-0.014c0.004,-0 0.008,0.001 0.013,0.003l0.031,0.015c0.009,0.006 0.014,0.012 0.014,0.02c-0,0.003 -0.001,0.007 -0.003,0.013l-0.404,0.806c-0.005,0.009 -0.012,0.014 -0.02,0.014c-0.003,-0 -0.007,-0.001 -0.012,-0.003l-0.032,-0.016c-0.009,-0.005 -0.013,-0.011 -0.013,-0.019c-0,-0.003 0.001,-0.008 0.003,-0.013l0.404,-0.806Z" fill="#d2232a"/>
    <path d="M5.707,4.105c0.053,-0.01 0.101,-0.033 0.142,-0.067c0.042,-0.035 0.074,-0.078 0.097,-0.131c0.024,-0.053 0.036,-0.112 0.036,-0.176c-0,-0.064 -0.012,-0.123 -0.036,-0.176c-0.023,-0.052 -0.055,-0.096 -0.097,-0.131c-0.041,-0.034 -0.089,-0.057 -0.142,-0.067c-0.013,-0.002 -0.02,-0.009 -0.02,-0.021c0,-0.004 0.001,-0.006 0.001,-0.008l0.006,-0.028c0.003,-0.015 0.012,-0.021 0.029,-0.018c0.068,0.014 0.127,0.041 0.178,0.083c0.052,0.042 0.092,0.094 0.121,0.157c0.029,0.063 0.044,0.133 0.044,0.209c-0,0.076 -0.015,0.146 -0.044,0.209c-0.029,0.063 -0.069,0.116 -0.121,0.157c-0.051,0.042 -0.11,0.07 -0.178,0.083l-0.007,0.001c-0.011,0 -0.019,-0.006 -0.022,-0.019l-0.006,-0.028c-0,-0.002 -0.001,-0.004 -0.001,-0.008c0,-0.012 0.007,-0.019 0.02,-0.021Z" fill="#d2232a"/>
    <path d="M6.604,3.316c0.016,0 0.024,0.008 0.024,0.024l0,0.396c0,0.095 -0.023,0.164 -0.069,0.208c-0.046,0.043 -0.103,0.065 -0.172,0.065c-0.049,0 -0.097,-0.009 -0.143,-0.029c-0.011,-0.004 -0.016,-0.011 -0.016,-0.02c0,-0.004 0.001,-0.008 0.003,-0.012l0.01,-0.024c0.004,-0.01 0.011,-0.015 0.02,-0.015c0.005,-0 0.009,0 0.011,0.002c0.041,0.015 0.077,0.022 0.109,0.022c0.045,0 0.083,-0.015 0.115,-0.046c0.032,-0.031 0.048,-0.081 0.048,-0.151l0,-0.344l-0.214,0c-0.016,0 -0.025,-0.008 -0.025,-0.024l0,-0.028c0,-0.016 0.009,-0.024 0.025,-0.024l0.274,0Z" fill="#d2232a"/>
    <path d="M7.215,3.699c0.015,-0 0.023,0.008 0.023,0.025c-0,0.045 -0.011,0.079 -0.032,0.103c-0.021,0.024 -0.052,0.036 -0.092,0.036c-0.021,-0 -0.045,-0.007 -0.07,-0.021c-0.025,-0.014 -0.051,-0.034 -0.077,-0.06c-0.04,-0.04 -0.072,-0.06 -0.095,-0.06c-0.015,0 -0.027,0.006 -0.035,0.017c-0.008,0.012 -0.012,0.028 -0.012,0.051c-0,0.014 -0.009,0.021 -0.027,0.021l-0.027,0c-0.016,0 -0.023,-0.008 -0.023,-0.025c-0,-0.045 0.01,-0.079 0.032,-0.103c0.021,-0.024 0.052,-0.036 0.092,-0.036c0.021,0 0.044,0.007 0.07,0.022c0.026,0.014 0.051,0.034 0.078,0.06c0.039,0.04 0.071,0.06 0.094,0.06c0.015,-0 0.027,-0.006 0.035,-0.018c0.007,-0.012 0.011,-0.029 0.011,-0.051c0,-0.006 0.003,-0.011 0.007,-0.015c0.005,-0.004 0.011,-0.006 0.02,-0.006l0.028,-0Z" fill="#f5841f"/>
    <path d="M7.778,3.699c0.015,-0 0.022,0.008 0.022,0.025c0,0.045 -0.01,0.079 -0.032,0.103c-0.021,0.024 -0.051,0.036 -0.091,0.036c-0.022,-0 -0.045,-0.007 -0.071,-0.021c-0.025,-0.014 -0.051,-0.034 -0.077,-0.06c-0.04,-0.04 -0.071,-0.06 -0.095,-0.06c-0.015,0 -0.026,0.006 -0.034,0.017c-0.009,0.012 -0.013,0.028 -0.013,0.051c0,0.014 -0.008,0.021 -0.026,0.021l-0.027,0c-0.016,0 -0.024,-0.008 -0.024,-0.025c0,-0.045 0.011,-0.079 0.032,-0.103c0.022,-0.024 0.053,-0.036 0.092,-0.036c0.021,0 0.044,0.007 0.07,0.022c0.026,0.014 0.052,0.034 0.078,0.06c0.04,0.04 0.071,0.06 0.095,0.06c0.015,-0 0.026,-0.006 0.034,-0.018c0.008,-0.012 0.012,-0.029 0.012,-0.051c-0,-0.006 0.002,-0.011 0.007,-0.015c0.004,-0.004 0.011,-0.006 0.019,-0.006l0.029,-0Z" fill="#f5841f"/>
    <path d="M10.608,4.14c0.002,0.005 0.003,0.01 0.003,0.013c-0,0.008 -0.005,0.014 -0.014,0.019l-0.031,0.016c-0.005,0.002 -0.009,0.003 -0.013,0.003c-0.008,-0 -0.015,-0.005 -0.02,-0.014l-0.404,-0.806c-0.002,-0.006 -0.003,-0.01 -0.003,-0.013c0,-0.008 0.005,-0.014 0.014,-0.02l0.031,-0.015c0.005,-0.002 0.009,-0.003 0.013,-0.003c0.008,-0 0.014,0.004 0.02,0.014l0.404,0.806Z" fill="#d2232a"/>
    <path d="M10.7,3.743c-0,-0.017 0.008,-0.026 0.024,-0.026l0.414,0c0.016,0 0.024,0.008 0.024,0.025l0,0.026c0,0.016 -0.008,0.025 -0.024,0.025l-0.414,-0c-0.016,-0 -0.024,-0.009 -0.024,-0.025l-0,-0.025Z" fill="#fdba12"/>
    <path d="M11.261,3.63c0,-0.016 0.008,-0.025 0.024,-0.025l0.414,0c0.017,0 0.025,0.008 0.025,0.024l-0,0.027c-0,0.016 -0.008,0.024 -0.025,0.024l-0.414,0c-0.016,0 -0.024,-0.008 -0.024,-0.024l0,-0.026Zm0,0.225c0,-0.017 0.008,-0.025 0.024,-0.025l0.414,-0c0.017,-0 0.025,0.008 0.025,0.024l-0,0.026c-0,0.017 -0.008,0.025 -0.025,0.025l-0.414,-0c-0.016,-0 -0.024,-0.008 -0.024,-0.025l0,-0.025Z" fill="#fdba12"/>
    <path d="M11.894,4.105c0.053,-0.01 0.101,-0.033 0.142,-0.067c0.042,-0.035 0.074,-0.078 0.098,-0.131c0.023,-0.053 0.035,-0.112 0.035,-0.176c-0,-0.064 -0.012,-0.123 -0.035,-0.176c-0.024,-0.052 -0.056,-0.096 -0.098,-0.131c-0.041,-0.034 -0.089,-0.057 -0.142,-0.067c-0.013,-0.002 -0.02,-0.009 -0.02,-0.021c0,-0.004 0.001,-0.006 0.001,-0.008l0.006,-0.028c0.003,-0.015 0.013,-0.021 0.03,-0.018c0.067,0.014 0.126,0.041 0.178,0.083c0.051,0.042 0.091,0.094 0.12,0.157c0.029,0.063 0.044,0.133 0.044,0.209c-0,0.076 -0.015,0.146 -0.044,0.209c-0.029,0.063 -0.069,0.116 -0.12,0.157c-0.052,0.042 -0.111,0.07 -0.178,0.083l-0.008,0.001c-0.011,0 -0.019,-0.006 -0.022,-0.019l-0.006,-0.028c-0,-0.002 -0.001,-0.004 -0.001,-0.008c0,-0.012 0.007,-0.019 0.02,-0.021Z" fill="#d2232a"/>
    <path d="M1.608,5.14c0.002,0.005 0.003,0.009 0.003,0.013c0,0.008 -0.004,0.014 -0.014,0.019l-0.031,0.016c-0.004,0.002 -0.009,0.003 -0.013,0.003c-0.007,-0 -0.014,-0.005 -0.019,-0.014l-0.404,-0.806c-0.002,-0.006 -0.003,-0.01 -0.003,-0.013c-0,-0.008 0.004,-0.014 0.014,-0.02l0.031,-0.015c0.004,-0.002 0.009,-0.003 0.013,-0.003c0.007,-0 0.014,0.004 0.019,0.013l0.404,0.807Z" fill="#d2232a"/>
    <path d="M2.171,5.14c0.002,0.005 0.003,0.009 0.003,0.013c-0,0.008 -0.005,0.014 -0.014,0.019l-0.031,0.016c-0.005,0.002 -0.009,0.003 -0.013,0.003c-0.008,-0 -0.015,-0.005 -0.02,-0.014l-0.404,-0.806c-0.002,-0.006 -0.003,-0.01 -0.003,-0.013c0,-0.008 0.005,-0.014 0.014,-0.02l0.031,-0.015c0.005,-0.002 0.009,-0.003 0.013,-0.003c0.008,-0 0.014,0.004 0.02,0.013l0.404,0.807Z" fill="#d2232a"/>
    <path d="M2.262,5.024c-0,-0.016 0.008,-0.025 0.024,-0.025l0.414,0c0.016,0 0.024,0.009 0.024,0.025l0,0.026c0,0.016 -0.008,0.025 -0.024,0.025l-0.414,-0c-0.016,-0 -0.024,-0.009 -0.024,-0.025l-0,-0.026Z" fill="#d2232a"/>
    <path d="M2.824,5.024c0,-0.016 0.008,-0.025 0.025,-0.025l0.413,0c0.017,0 0.025,0.009 0.025,0.025l-0,0.026c-0,0.016 -0.008,0.025 -0.025,0.025l-0.413,-0c-0.017,-0 -0.025,-0.009 -0.025,-0.025l0,-0.026Z" fill="#d2232a"/>
    <path d="M3.387,5.024c-0,-0.016 0.008,-0.025 0.024,-0.025l0.414,0c0.016,0 0.024,0.009 0.024,0.025l0,0.026c0,0.016 -0.008,0.025 -0.024,0.025l-0.414,-0c-0.016,-0 -0.024,-0.009 -0.024,-0.025l-0,-0.026Z" fill="#d2232a"/>
    <path d="M4.344,4.333c0.005,-0.009 0.012,-0.013 0.02,-0.013c0.004,-0 0.008,0.001 0.012,0.003l0.032,0.015c0.009,0.006 0.013,0.012 0.013,0.02c0,0.003 -0.001,0.007 -0.002,0.013l-0.404,0.806c-0.006,0.009 -0.012,0.014 -0.02,0.014c-0.003,-0 -0.008,-0.001 -0.013,-0.003l-0.031,-0.016c-0.009,-0.005 -0.014,-0.011 -0.014,-0.019c0,-0.004 0.001,-0.008 0.003,-0.013l0.404,-0.807Z" fill="#d2232a"/>
    <path d="M5.707,5.105c0.053,-0.011 0.101,-0.033 0.142,-0.067c0.042,-0.035 0.074,-0.079 0.097,-0.131c0.024,-0.053 0.036,-0.112 0.036,-0.176c-0,-0.065 -0.012,-0.123 -0.036,-0.176c-0.023,-0.053 -0.055,-0.096 -0.097,-0.131c-0.041,-0.034 -0.089,-0.057 -0.142,-0.067c-0.013,-0.002 -0.02,-0.009 -0.02,-0.022c0,-0.003 0.001,-0.005 0.001,-0.007l0.006,-0.028c0.003,-0.015 0.012,-0.022 0.029,-0.018c0.068,0.013 0.127,0.041 0.178,0.083c0.052,0.041 0.092,0.094 0.121,0.157c0.029,0.063 0.044,0.133 0.044,0.209c-0,0.076 -0.015,0.146 -0.044,0.209c-0.029,0.063 -0.069,0.115 -0.121,0.157c-0.051,0.042 -0.11,0.069 -0.178,0.083l-0.007,0.001c-0.011,0 -0.019,-0.006 -0.022,-0.019l-0.006,-0.028c-0,-0.002 -0.001,-0.004 -0.001,-0.008c0,-0.012 0.007,-0.019 0.02,-0.021Z" fill="#d2232a"/>
    <path d="M6.604,4.316c0.016,-0 0.024,0.008 0.024,0.024l0,0.396c0,0.095 -0.023,0.164 -0.069,0.208c-0.046,0.043 -0.103,0.065 -0.172,0.065c-0.049,0 -0.097,-0.01 -0.143,-0.029c-0.011,-0.004 -0.016,-0.011 -0.016,-0.021c0,-0.004 0.001,-0.007 0.003,-0.011l0.01,-0.024c0.004,-0.01 0.011,-0.015 0.02,-0.015c0.005,-0 0.009,0 0.011,0.002c0.041,0.015 0.077,0.022 0.109,0.022c0.045,0 0.083,-0.015 0.115,-0.046c0.032,-0.031 0.048,-0.082 0.048,-0.151l0,-0.344l-0.214,0c-0.016,0 -0.025,-0.008 -0.025,-0.024l0,-0.028c0,-0.016 0.009,-0.024 0.025,-0.024l0.274,-0Z" fill="#d2232a"/>
    <path d="M7.166,4.316c0.017,-0 0.025,0.008 0.025,0.024l-0,0.396c-0,0.095 -0.023,0.164 -0.069,0.208c-0.046,0.043 -0.104,0.065 -0.173,0.065c-0.049,0 -0.096,-0.01 -0.143,-0.029c-0.01,-0.004 -0.015,-0.011 -0.015,-0.021c-0,-0.004 0.001,-0.007 0.003,-0.011l0.009,-0.024c0.004,-0.01 0.011,-0.015 0.021,-0.015c0.004,-0 0.008,0 0.011,0.002c0.041,0.015 0.077,0.022 0.108,0.022c0.045,0 0.084,-0.015 0.116,-0.046c0.032,-0.031 0.048,-0.082 0.048,-0.151l-0,-0.344l-0.215,0c-0.016,0 -0.024,-0.008 -0.024,-0.024l-0,-0.028c-0,-0.016 0.008,-0.024 0.024,-0.024l0.274,-0Z" fill="#d2232a"/>
    <path d="M7.778,4.699c0.015,-0 0.022,0.008 0.022,0.025c0,0.045 -0.01,0.079 -0.032,0.103c-0.021,0.024 -0.051,0.036 -0.091,0.036c-0.022,-0 -0.045,-0.007 -0.071,-0.021c-0.025,-0.014 -0.051,-0.034 -0.077,-0.06c-0.04,-0.04 -0.071,-0.06 -0.095,-0.06c-0.015,0 -0.026,0.006 -0.034,0.017c-0.009,0.012 -0.013,0.028 -0.013,0.05c0,0.015 -0.008,0.022 -0.026,0.022l-0.027,-0c-0.016,-0 -0.024,-0.008 -0.024,-0.025c0,-0.045 0.011,-0.079 0.032,-0.103c0.022,-0.024 0.053,-0.036 0.092,-0.036c0.021,-0 0.044,0.007 0.07,0.021c0.026,0.015 0.052,0.035 0.078,0.061c0.04,0.04 0.071,0.06 0.095,0.06c0.015,-0 0.026,-0.006 0.034,-0.018c0.008,-0.012 0.012,-0.029 0.012,-0.051c-0,-0.006 0.002,-0.012 0.007,-0.015c0.004,-0.004 0.011,-0.006 0.019,-0.006l0.029,-0Z" fill="#f5841f"/>
    <path d="M8.34,4.699c0.015,-0 0.023,0.008 0.023,0.025c-0,0.045 -0.011,0.079 -0.032,0.103c-0.021,0.024 -0.052,0.036 -0.092,0.036c-0.021,-0 -0.045,-0.007 -0.07,-0.021c-0.026,-0.014 -0.051,-0.034 -0.077,-0.06c-0.04,-0.04 -0.072,-0.06 -0.095,-0.06c-0.015,0 -0.027,0.006 -0.035,0.017c-0.008,0.012 -0.012,0.028 -0.012,0.05c-0,0.015 -0.009,0.022 -0.027,0.022l-0.027,-0c-0.016,-0 -0.023,-0.008 -0.023,-0.025c-0,-0.045 0.01,-0.079 0.032,-0.103c0.021,-0.024 0.052,-0.036 0.092,-0.036c0.021,-0 0.044,0.007 0.07,0.021c0.025,0.015 0.051,0.035 0.077,0.061c0.04,0.04 0.072,0.06 0.095,0.06c0.015,-0 0.027,-0.006 0.035,-0.018c0.007,-0.012 0.011,-0.029 0.011,-0.051c0,-0.006 0.003,-0.012 0.007,-0.015c0.005,-0.004 0.011,-0.006 0.02,-0.006l0.028,-0Z" fill="#fdba12"/>
    <path d="M8.903,4.699c0.015,-0 0.022,0.008 0.022,0.025c0,0.045 -0.011,0.079 -0.032,0.103c-0.021,0.024 -0.051,0.036 -0.091,0.036c-0.022,-0 -0.045,-0.007 -0.071,-0.021c-0.025,-0.014 -0.051,-0.034 -0.077,-0.06c-0.04,-0.04 -0.071,-0.06 -0.095,-0.06c-0.015,0 -0.026,0.006 -0.034,0.017c-0.009,0.012 -0.013,0.028 -0.013,0.05c0,0.015 -0.009,0.022 -0.026,0.022l-0.028,-0c-0.015,-0 -0.023,-0.008 -0.023,-0.025c-0,-0.045 0.011,-0.079 0.032,-0.103c0.022,-0.024 0.052,-0.036 0.092,-0.036c0.021,-0 0.044,0.007 0.07,0.021c0.026,0.015 0.052,0.035 0.078,0.061c0.04,0.04 0.071,0.06 0.095,0.06c0.015,-0 0.026,-0.006 0.034,-0.018c0.008,-0.012 0.012,-0.029 0.012,-0.051c-0,-0.006 0.002,-0.012 0.007,-0.015c0.004,-0.004 0.011,-0.006 0.019,-0.006l0.029,-0Z" fill="#fdba12"/>
    <path d="M11.17,5.14c0.002,0.005 0.003,0.009 0.003,0.013c-0,0.008 -0.005,0.014 -0.014,0.019l-0.031,0.016c-0.005,0.002 -0.009,0.003 -0.013,0.003c-0.008,-0 -0.014,-0.005 -0.019,-0.014l-0.404,-0.806c-0.002,-0.006 -0.003,-0.01 -0.003,-0.013c-0,-0.008 0.004,-0.014 0.013,-0.02l0.032,-0.015c0.004,-0.002 0.009,-0.003 0.012,-0.003c0.008,-0 0.015,0.004 0.02,0.013l0.404,0.807Z" fill="#d2232a"/>
    <path d="M11.331,5.105c0.054,-0.011 0.101,-0.033 0.143,-0.067c0.041,-0.035 0.074,-0.079 0.097,-0.131c0.024,-0.053 0.035,-0.112 0.035,-0.176c0,-0.065 -0.011,-0.123 -0.035,-0.176c-0.023,-0.053 -0.056,-0.096 -0.097,-0.131c-0.042,-0.034 -0.089,-0.057 -0.143,-0.067c-0.013,-0.002 -0.019,-0.009 -0.019,-0.022c-0,-0.003 0,-0.005 0.001,-0.007l0.006,-0.028c0.002,-0.015 0.012,-0.022 0.029,-0.018c0.067,0.013 0.127,0.041 0.178,0.083c0.052,0.041 0.092,0.094 0.121,0.157c0.029,0.063 0.043,0.133 0.043,0.209c0,0.076 -0.014,0.146 -0.043,0.209c-0.029,0.063 -0.069,0.115 -0.121,0.157c-0.051,0.042 -0.111,0.069 -0.178,0.083l-0.008,0.001c-0.011,0 -0.018,-0.006 -0.021,-0.019l-0.006,-0.028c-0.001,-0.002 -0.001,-0.004 -0.001,-0.008c-0,-0.012 0.006,-0.019 0.019,-0.021Z" fill="#d2232a"/>
    <path d="M2.171,6.14c0.002,0.005 0.003,0.009 0.003,0.013c-0,0.007 -0.005,0.014 -0.014,0.019l-0.031,0.016c-0.005,0.002 -0.009,0.003 -0.013,0.003c-0.008,-0 -0.015,-0.005 -0.02,-0.014l-0.404,-0.807c-0.002,-0.005 -0.003,-0.009 -0.003,-0.012c0,-0.008 0.005,-0.015 0.014,-0.02l0.031,-0.015c0.005,-0.002 0.009,-0.003 0.013,-0.003c0.008,-0 0.014,0.004 0.02,0.013l0.404,0.807Z" fill="#d2232a"/>
    <path d="M2.262,6.024c-0,-0.017 0.008,-0.025 0.024,-0.025l0.414,0c0.016,0 0.024,0.008 0.024,0.025l0,0.026c0,0.016 -0.008,0.024 -0.024,0.024l-0.414,0c-0.016,0 -0.024,-0.008 -0.024,-0.024l-0,-0.026Z" fill="#d2232a"/>
    <path d="M2.824,6.024c0,-0.017 0.008,-0.025 0.025,-0.025l0.413,0c0.017,0 0.025,0.008 0.025,0.025l-0,0.026c-0,0.016 -0.008,0.024 -0.025,0.024l-0.413,0c-0.017,0 -0.025,-0.008 -0.025,-0.024l0,-0.026Z" fill="#d2232a"/>
    <path d="M3.387,6.024c-0,-0.017 0.008,-0.025 0.024,-0.025l0.414,0c0.016,0 0.024,0.008 0.024,0.025l0,0.026c0,0.016 -0.008,0.024 -0.024,0.024l-0.414,0c-0.016,0 -0.024,-0.008 -0.024,-0.024l-0,-0.026Z" fill="#d2232a"/>
    <path d="M3.949,6.024c-0,-0.017 0.008,-0.025 0.024,-0.025l0.414,0c0.017,0 0.025,0.008 0.025,0.025l-0,0.026c-0,0.016 -0.008,0.024 -0.025,0.024l-0.414,0c-0.016,0 -0.024,-0.008 -0.024,-0.024l-0,-0.026Z" fill="#d2232a"/>
    <path d="M4.511,6.024c0,-0.017 0.009,-0.025 0.025,-0.025l0.414,0c0.016,0 0.024,0.008 0.024,0.025l0,0.026c0,0.016 -0.008,0.024 -0.024,0.024l-0.414,0c-0.016,0 -0.025,-0.008 -0.025,-0.024l0,-0.026Z" fill="#d2232a"/>
    <path d="M5.469,5.333c0.005,-0.009 0.012,-0.013 0.02,-0.013c0.004,-0 0.008,0.001 0.012,0.003l0.032,0.015c0.009,0.005 0.013,0.012 0.013,0.02c0,0.003 -0.001,0.007 -0.003,0.012l-0.404,0.807c-0.005,0.009 -0.011,0.014 -0.019,0.014c-0.003,-0 -0.008,-0.001 -0.013,-0.003l-0.031,-0.016c-0.009,-0.005 -0.014,-0.012 -0.014,-0.019c0,-0.004 0.001,-0.008 0.003,-0.013l0.404,-0.807Z" fill="#d2232a"/>
    <path d="M6.041,5.316c0.017,-0 0.025,0.008 0.025,0.024l-0,0.396c-0,0.095 -0.023,0.164 -0.069,0.208c-0.046,0.043 -0.104,0.065 -0.173,0.065c-0.049,0 -0.096,-0.01 -0.143,-0.029c-0.01,-0.004 -0.015,-0.011 -0.015,-0.021c-0,-0.004 0.001,-0.008 0.003,-0.011l0.009,-0.024c0.004,-0.01 0.011,-0.016 0.021,-0.016c0.005,0 0.008,0.001 0.011,0.002c0.041,0.015 0.077,0.023 0.108,0.023c0.045,-0 0.084,-0.016 0.116,-0.046c0.032,-0.031 0.048,-0.082 0.048,-0.151l-0,-0.344l-0.215,-0c-0.016,-0 -0.024,-0.008 -0.024,-0.024l-0,-0.028c-0,-0.016 0.008,-0.024 0.024,-0.024l0.274,-0Z" fill="#d2232a"/>
    <path d="M6.604,5.316c0.016,-0 0.024,0.008 0.024,0.024l0,0.396c0,0.095 -0.023,0.164 -0.069,0.208c-0.046,0.043 -0.103,0.065 -0.172,0.065c-0.049,0 -0.097,-0.01 -0.143,-0.029c-0.011,-0.004 -0.016,-0.011 -0.016,-0.021c0,-0.004 0.001,-0.008 0.003,-0.011l0.01,-0.024c0.004,-0.01 0.011,-0.016 0.02,-0.016c0.005,0 0.009,0.001 0.011,0.002c0.041,0.015 0.077,0.023 0.109,0.023c0.045,-0 0.083,-0.016 0.115,-0.046c0.032,-0.031 0.048,-0.082 0.048,-0.151l0,-0.344l-0.214,-0c-0.016,-0 -0.025,-0.008 -0.025,-0.024l0,-0.028c0,-0.016 0.009,-0.024 0.025,-0.024l0.274,-0Z" fill="#d2232a"/>
    <path d="M7.166,5.316c0.017,-0 0.025,0.008 0.025,0.024l-0,0.396c-0,0.095 -0.023,0.164 -0.069,0.208c-0.046,0.043 -0.104,0.065 -0.173,0.065c-0.049,0 -0.096,-0.01 -0.143,-0.029c-0.01,-0.004 -0.015,-0.011 -0.015,-0.021c-0,-0.004 0.001,-0.008 0.003,-0.011l0.009,-0.024c0.004,-0.01 0.011,-0.016 0.021,-0.016c0.004,0 0.008,0.001 0.011,0.002c0.041,0.015 0.077,0.023 0.108,0.023c0.045,-0 0.084,-0.016 0.116,-0.046c0.032,-0.031 0.048,-0.082 0.048,-0.151l-0,-0.344l-0.215,-0c-0.016,-0 -0.024,-0.008 -0.024,-0.024l-0,-0.028c-0,-0.016 0.008,-0.024 0.024,-0.024l0.274,-0Z" fill="#d2232a"/>
    <path d="M7.778,5.699c0.015,-0 0.022,0.008 0.022,0.025c0,0.045 -0.01,0.079 -0.032,0.103c-0.021,0.024 -0.051,0.036 -0.091,0.036c-0.022,-0 -0.045,-0.007 -0.071,-0.021c-0.025,-0.014 -0.051,-0.034 -0.077,-0.06c-0.04,-0.04 -0.071,-0.06 -0.095,-0.06c-0.015,-0 -0.026,0.006 -0.034,0.017c-0.009,0.011 -0.013,0.028 -0.013,0.05c0,0.015 -0.008,0.022 -0.026,0.022l-0.027,-0c-0.016,-0 -0.024,-0.009 -0.024,-0.026c0,-0.044 0.011,-0.078 0.032,-0.102c0.022,-0.024 0.053,-0.036 0.092,-0.036c0.021,-0 0.044,0.007 0.07,0.021c0.026,0.015 0.052,0.035 0.078,0.061c0.04,0.04 0.071,0.059 0.095,0.059c0.015,0 0.026,-0.005 0.034,-0.017c0.008,-0.012 0.012,-0.029 0.012,-0.051c-0,-0.006 0.002,-0.012 0.007,-0.016c0.004,-0.003 0.011,-0.005 0.019,-0.005l0.029,-0Z" fill="#f5841f"/>
    <path d="M8.34,5.699c0.015,-0 0.023,0.008 0.023,0.025c-0,0.045 -0.011,0.079 -0.032,0.103c-0.021,0.024 -0.052,0.036 -0.092,0.036c-0.021,-0 -0.045,-0.007 -0.07,-0.021c-0.026,-0.014 -0.051,-0.034 -0.077,-0.06c-0.04,-0.04 -0.072,-0.06 -0.095,-0.06c-0.015,-0 -0.027,0.006 -0.035,0.017c-0.008,0.011 -0.012,0.028 -0.012,0.05c-0,0.015 -0.009,0.022 -0.027,0.022l-0.027,-0c-0.016,-0 -0.023,-0.009 -0.023,-0.026c-0,-0.044 0.01,-0.078 0.032,-0.102c0.021,-0.024 0.052,-0.036 0.092,-0.036c0.021,-0 0.044,0.007 0.07,0.021c0.025,0.015 0.051,0.035 0.077,0.061c0.04,0.04 0.072,0.059 0.095,0.059c0.015,0 0.027,-0.005 0.035,-0.017c0.007,-0.012 0.011,-0.029 0.011,-0.051c0,-0.006 0.003,-0.012 0.007,-0.016c0.005,-0.003 0.011,-0.005 0.02,-0.005l0.028,-0Z" fill="#f5841f"/>
    <path d="M8.903,5.699c0.015,-0 0.022,0.008 0.022,0.025c0,0.045 -0.011,0.079 -0.032,0.103c-0.021,0.024 -0.051,0.036 -0.091,0.036c-0.022,-0 -0.045,-0.007 -0.071,-0.021c-0.025,-0.014 -0.051,-0.034 -0.077,-0.06c-0.04,-0.04 -0.071,-0.06 -0.095,-0.06c-0.015,-0 -0.026,0.006 -0.034,0.017c-0.009,0.011 -0.013,0.028 -0.013,0.05c0,0.015 -0.009,0.022 -0.026,0.022l-0.028,-0c-0.015,-0 -0.023,-0.009 -0.023,-0.026c-0,-0.044 0.011,-0.078 0.032,-0.102c0.022,-0.024 0.052,-0.036 0.092,-0.036c0.021,-0 0.044,0.007 0.07,0.021c0.026,0.015 0.052,0.035 0.078,0.061c0.04,0.04 0.071,0.059 0.095,0.059c0.015,0 0.026,-0.005 0.034,-0.017c0.008,-0.012 0.012,-0.029 0.012,-0.051c-0,-0.006 0.002,-0.012 0.007,-0.016c0.004,-0.003 0.011,-0.005 0.019,-0.005l0.029,-0Z" fill="#fdba12"/>
    <path d="M9.465,5.699c0.015,-0 0.023,0.008 0.023,0.025c-0,0.045 -0.011,0.079 -0.032,0.103c-0.021,0.024 -0.052,0.036 -0.092,0.036c-0.021,-0 -0.045,-0.007 -0.07,-0.021c-0.026,-0.014 -0.051,-0.034 -0.077,-0.06c-0.04,-0.04 -0.072,-0.06 -0.095,-0.06c-0.015,-0 -0.027,0.006 -0.035,0.017c-0.008,0.011 -0.012,0.028 -0.012,0.05c-0,0.015 -0.009,0.022 -0.027,0.022l-0.027,-0c-0.016,-0 -0.024,-0.009 -0.024,-0.026c0,-0.044 0.011,-0.078 0.033,-0.102c0.021,-0.024 0.052,-0.036 0.092,-0.036c0.021,-0 0.044,0.007 0.07,0.021c0.025,0.015 0.051,0.035 0.077,0.061c0.04,0.04 0.072,0.059 0.095,0.059c0.015,0 0.027,-0.005 0.035,-0.017c0.007,-0.012 0.011,-0.029 0.011,-0.051c0,-0.006 0.003,-0.012 0.007,-0.016c0.005,-0.003 0.011,-0.005 0.02,-0.005l0.028,-0Z" fill="#fdba12"/>
    <path d="M12.295,6.14c0.002,0.005 0.003,0.009 0.003,0.013c-0,0.007 -0.005,0.014 -0.014,0.019l-0.031,0.016c-0.005,0.002 -0.009,0.003 -0.013,0.003c-0.008,-0 -0.014,-0.005 -0.019,-0.014l-0.404,-0.807c-0.002,-0.005 -0.003,-0.009 -0.003,-0.012c-0,-0.008 0.004,-0.015 0.013,-0.02l0.032,-0.015c0.004,-0.002 0.008,-0.003 0.012,-0.003c0.008,-0 0.015,0.004 0.02,0.013l0.404,0.807Z" fill="#d2232a"/>
    <path d="M2.094,6.333c0.006,-0.009 0.012,-0.013 0.02,-0.013c0.004,-0 0.008,0.001 0.013,0.003l0.031,0.015c0.009,0.005 0.014,0.012 0.014,0.02c-0,0.003 -0.001,0.007 -0.003,0.012l-0.404,0.807c-0.006,0.009 -0.012,0.014 -0.02,0.014c-0.003,-0 -0.007,-0.001 -0.013,-0.003l-0.031,-0.016c-0.009,-0.005 -0.014,-0.012 -0.014,-0.02c0,-0.003 0.001,-0.007 0.003,-0.012l0.404,-0.807Z" fill="#f5841f"/>
    <path d="M3.296,7.14c0.002,0.005 0.002,0.009 0.002,0.012c0,0.008 -0.004,0.015 -0.013,0.02l-0.032,0.016c-0.004,0.002 -0.008,0.003 -0.012,0.003c-0.008,-0 -0.015,-0.005 -0.02,-0.014l-0.404,-0.807c-0.002,-0.005 -0.003,-0.009 -0.003,-0.012c0,-0.008 0.005,-0.015 0.014,-0.02l0.031,-0.015c0.005,-0.002 0.009,-0.003 0.013,-0.003c0.008,-0 0.014,0.004 0.02,0.013l0.404,0.807Z" fill="#d2232a"/>
    <path d="M4.792,6.862c0.016,0 0.025,0.009 0.025,0.025l-0,0.114c-0,0.059 -0.008,0.106 -0.024,0.141c-0.015,0.034 -0.041,0.059 -0.075,0.075c-0.035,0.016 -0.082,0.023 -0.141,0.023c-0.016,0 -0.024,-0.007 -0.024,-0.023l-0,-0.026c-0,-0.017 0.007,-0.025 0.023,-0.025c0.058,0 0.099,-0.012 0.123,-0.037c0.024,-0.025 0.035,-0.069 0.034,-0.13l-0.039,0c-0.016,0 -0.024,-0.008 -0.024,-0.024l-0,-0.088c-0,-0.016 0.008,-0.025 0.024,-0.025l0.098,0Z" fill="#fdba12"/>
    <path d="M6.108,7.14c0.002,0.005 0.003,0.009 0.003,0.012c-0,0.008 -0.005,0.015 -0.014,0.02l-0.031,0.016c-0.005,0.002 -0.009,0.003 -0.013,0.003c-0.008,-0 -0.014,-0.005 -0.019,-0.014l-0.404,-0.807c-0.002,-0.005 -0.003,-0.009 -0.003,-0.012c-0,-0.008 0.004,-0.015 0.013,-0.02l0.032,-0.015c0.004,-0.002 0.008,-0.003 0.012,-0.003c0.008,-0 0.015,0.004 0.02,0.013l0.404,0.807Z" fill="#fdba12"/>
    <path d="M6.604,6.316c0.016,-0 0.024,0.008 0.024,0.024l0,0.396c0,0.095 -0.023,0.164 -0.069,0.208c-0.046,0.043 -0.103,0.065 -0.172,0.065c-0.049,-0 -0.097,-0.01 -0.143,-0.029c-0.011,-0.004 -0.016,-0.011 -0.016,-0.021c0,-0.004 0.001,-0.008 0.003,-0.012l0.01,-0.023c0.004,-0.01 0.011,-0.016 0.02,-0.016c0.005,0 0.009,0.001 0.011,0.002c0.041,0.015 0.077,0.023 0.109,0.023c0.045,-0 0.083,-0.016 0.115,-0.047c0.032,-0.031 0.048,-0.081 0.048,-0.15l0,-0.344l-0.214,-0c-0.016,-0 -0.025,-0.008 -0.025,-0.025l0,-0.027c0,-0.016 0.009,-0.024 0.025,-0.024l0.274,-0Z" fill="#d2232a"/>
    <path d="M7.215,6.698c0.015,0 0.023,0.009 0.023,0.026c-0,0.045 -0.011,0.079 -0.032,0.103c-0.021,0.024 -0.052,0.035 -0.092,0.035c-0.021,0 -0.045,-0.007 -0.07,-0.021c-0.025,-0.014 -0.051,-0.034 -0.077,-0.06c-0.04,-0.039 -0.072,-0.059 -0.095,-0.059c-0.015,-0 -0.027,0.006 -0.035,0.017c-0.008,0.011 -0.012,0.028 -0.012,0.05c-0,0.015 -0.009,0.022 -0.027,0.022l-0.027,-0c-0.016,-0 -0.023,-0.009 -0.023,-0.026c-0,-0.044 0.01,-0.078 0.032,-0.102c0.021,-0.024 0.052,-0.036 0.092,-0.036c0.021,-0 0.044,0.007 0.07,0.021c0.026,0.014 0.051,0.035 0.078,0.061c0.039,0.039 0.071,0.059 0.094,0.059c0.015,0 0.027,-0.006 0.035,-0.017c0.007,-0.012 0.011,-0.029 0.011,-0.051c0,-0.007 0.003,-0.012 0.007,-0.016c0.005,-0.004 0.011,-0.006 0.02,-0.006l0.028,0Z" fill="#f5841f"/>
    <path d="M7.778,6.698c0.015,0 0.022,0.009 0.022,0.026c0,0.045 -0.01,0.079 -0.032,0.103c-0.021,0.024 -0.051,0.035 -0.091,0.035c-0.022,0 -0.045,-0.007 -0.071,-0.021c-0.025,-0.014 -0.051,-0.034 -0.077,-0.06c-0.04,-0.039 -0.071,-0.059 -0.095,-0.059c-0.015,-0 -0.026,0.006 -0.034,0.017c-0.009,0.011 -0.013,0.028 -0.013,0.05c0,0.015 -0.008,0.022 -0.026,0.022l-0.027,-0c-0.016,-0 -0.024,-0.009 -0.024,-0.026c0,-0.044 0.011,-0.078 0.032,-0.102c0.022,-0.024 0.053,-0.036 0.092,-0.036c0.021,-0 0.044,0.007 0.07,0.021c0.026,0.014 0.052,0.035 0.078,0.061c0.04,0.039 0.071,0.059 0.095,0.059c0.015,0 0.026,-0.006 0.034,-0.017c0.008,-0.012 0.012,-0.029 0.012,-0.051c-0,-0.007 0.002,-0.012 0.007,-0.016c0.004,-0.004 0.011,-0.006 0.019,-0.006l0.029,0Z" fill="#f5841f"/>
    <path d="M8.34,6.698c0.015,0 0.023,0.009 0.023,0.026c-0,0.045 -0.011,0.079 -0.032,0.103c-0.021,0.024 -0.052,0.035 -0.092,0.035c-0.021,0 -0.045,-0.007 -0.07,-0.021c-0.026,-0.014 -0.051,-0.034 -0.077,-0.06c-0.04,-0.039 -0.072,-0.059 -0.095,-0.059c-0.015,-0 -0.027,0.006 -0.035,0.017c-0.008,0.011 -0.012,0.028 -0.012,0.05c-0,0.015 -0.009,0.022 -0.027,0.022l-0.027,-0c-0.016,-0 -0.023,-0.009 -0.023,-0.026c-0,-0.044 0.01,-0.078 0.032,-0.102c0.021,-0.024 0.052,-0.036 0.092,-0.036c0.021,-0 0.044,0.007 0.07,0.021c0.025,0.014 0.051,0.035 0.077,0.061c0.04,0.039 0.072,0.059 0.095,0.059c0.015,0 0.027,-0.006 0.035,-0.017c0.007,-0.012 0.011,-0.029 0.011,-0.051c0,-0.007 0.003,-0.012 0.007,-0.016c0.005,-0.004 0.011,-0.006 0.02,-0.006l0.028,0Z" fill="#f5841f"/>
    <path d="M8.903,6.698c0.015,0 0.022,0.009 0.022,0.026c0,0.045 -0.011,0.079 -0.032,0.103c-0.021,0.024 -0.051,0.035 -0.091,0.035c-0.022,0 -0.045,-0.007 -0.071,-0.021c-0.025,-0.014 -0.051,-0.034 -0.077,-0.06c-0.04,-0.039 -0.071,-0.059 -0.095,-0.059c-0.015,-0 -0.026,0.006 -0.034,0.017c-0.009,0.011 -0.013,0.028 -0.013,0.05c0,0.015 -0.009,0.022 -0.026,0.022l-0.028,-0c-0.015,-0 -0.023,-0.009 -0.023,-0.026c-0,-0.044 0.011,-0.078 0.032,-0.102c0.022,-0.024 0.052,-0.036 0.092,-0.036c0.021,-0 0.044,0.007 0.07,0.021c0.026,0.014 0.052,0.035 0.078,0.061c0.04,0.039 0.071,0.059 0.095,0.059c0.015,0 0.026,-0.006 0.034,-0.017c0.008,-0.012 0.012,-0.029 0.012,-0.051c-0,-0.007 0.002,-0.012 0.007,-0.016c0.004,-0.004 0.011,-0.006 0.019,-0.006l0.029,0Z" fill="#fdba12"/>
    <path d="M9.465,6.698c0.015,0 0.023,0.009 0.023,0.026c-0,0.045 -0.011,0.079 -0.032,0.103c-0.021,0.024 -0.052,0.035 -0.092,0.035c-0.021,0 -0.045,-0.007 -0.07,-0.021c-0.026,-0.014 -0.051,-0.034 -0.077,-0.06c-0.04,-0.039 -0.072,-0.059 -0.095,-0.059c-0.015,-0 -0.027,0.006 -0.035,0.017c-0.008,0.011 -0.012,0.028 -0.012,0.05c-0,0.015 -0.009,0.022 -0.027,0.022l-0.027,-0c-0.016,-0 -0.024,-0.009 -0.024,-0.026c0,-0.044 0.011,-0.078 0.033,-0.102c0.021,-0.024 0.052,-0.036 0.092,-0.036c0.021,-0 0.044,0.007 0.07,0.021c0.025,0.014 0.051,0.035 0.077,0.061c0.04,0.039 0.072,0.059 0.095,0.059c0.015,0 0.027,-0.006 0.035,-0.017c0.007,-0.012 0.011,-0.029 0.011,-0.051c0,-0.007 0.003,-0.012 0.007,-0.016c0.005,-0.004 0.011,-0.006 0.02,-0.006l0.028,0Z" fill="#fdba12"/>
    <path d="M12.857,7.14c0.002,0.005 0.003,0.009 0.003,0.012c0,0.008 -0.004,0.015 -0.013,0.02l-0.032,0.016c-0.004,0.002 -0.008,0.003 -0.012,0.003c-0.008,-0 -0.015,-0.005 -0.02,-0.014l-0.404,-0.807c-0.002,-0.005 -0.003,-0.009 -0.003,-0.012c0,-0.008 0.005,-0.015 0.014,-0.02l0.031,-0.015c0.005,-0.002 0.009,-0.003 0.013,-0.003c0.008,-0 0.014,0.004 0.019,0.013l0.404,0.807Z" fill="#f5841f"/>
    <path d="M1.529,8.105c0.013,0.001 0.019,0.009 0.019,0.021c0,0.003 0,0.006 -0,0.008l-0.006,0.027c-0.003,0.016 -0.013,0.022 -0.03,0.019c-0.067,-0.014 -0.126,-0.042 -0.178,-0.083c-0.051,-0.042 -0.092,-0.094 -0.121,-0.157c-0.029,-0.064 -0.043,-0.133 -0.043,-0.209c-0,-0.077 0.014,-0.146 0.043,-0.209c0.029,-0.064 0.07,-0.116 0.121,-0.158c0.052,-0.041 0.111,-0.069 0.178,-0.083l0.008,-0.001c0.011,0 0.018,0.007 0.022,0.02l0.006,0.027c0,0.002 0,0.005 0,0.008c0,0.012 -0.006,0.02 -0.019,0.022c-0.054,0.01 -0.101,0.032 -0.142,0.067c-0.042,0.034 -0.074,0.078 -0.098,0.131c-0.023,0.053 -0.035,0.111 -0.035,0.176c0,0.064 0.012,0.123 0.035,0.175c0.024,0.053 0.056,0.097 0.098,0.131c0.041,0.035 0.088,0.057 0.142,0.068Z" fill="#f5841f"/>
    <path d="M1.7,7.742c0,-0.017 0.008,-0.025 0.025,-0.025l0.413,-0c0.017,-0 0.025,0.008 0.025,0.024l-0,0.027c-0,0.016 -0.008,0.024 -0.025,0.024l-0.413,0c-0.017,0 -0.025,-0.008 -0.025,-0.024l0,-0.026Z" fill="#f5841f"/>
    <path d="M2.733,8.14c0.002,0.005 0.003,0.009 0.003,0.012c0,0.008 -0.005,0.015 -0.014,0.02l-0.031,0.016c-0.005,0.001 -0.009,0.002 -0.013,0.002c-0.008,0 -0.014,-0.004 -0.019,-0.013l-0.404,-0.807c-0.002,-0.005 -0.003,-0.009 -0.003,-0.012c-0,-0.008 0.004,-0.015 0.014,-0.02l0.031,-0.016c0.004,-0.002 0.009,-0.003 0.013,-0.003c0.007,0 0.014,0.005 0.019,0.014l0.404,0.807Z" fill="#fdba12"/>
    <path d="M2.894,8.105c0.054,-0.011 0.101,-0.033 0.143,-0.068c0.041,-0.034 0.074,-0.078 0.097,-0.131c0.024,-0.052 0.035,-0.111 0.035,-0.175c0,-0.065 -0.011,-0.123 -0.035,-0.176c-0.023,-0.053 -0.056,-0.097 -0.097,-0.131c-0.042,-0.035 -0.089,-0.057 -0.143,-0.067c-0.013,-0.002 -0.019,-0.01 -0.019,-0.022c-0,-0.003 0,-0.006 0.001,-0.008l0.006,-0.027c0.002,-0.016 0.012,-0.022 0.029,-0.019c0.067,0.014 0.127,0.042 0.178,0.083c0.052,0.042 0.092,0.094 0.121,0.158c0.029,0.063 0.043,0.132 0.043,0.209c0,0.076 -0.014,0.145 -0.043,0.209c-0.029,0.063 -0.069,0.115 -0.121,0.157c-0.051,0.041 -0.111,0.069 -0.178,0.083l-0.008,0.001c-0.011,-0 -0.018,-0.007 -0.021,-0.02l-0.006,-0.027c-0.001,-0.002 -0.001,-0.005 -0.001,-0.008c-0,-0.012 0.006,-0.02 0.019,-0.021Z" fill="#fdba12"/>
    <path d="M3.858,8.14c0.002,0.005 0.003,0.009 0.003,0.012c-0,0.008 -0.005,0.015 -0.014,0.02l-0.031,0.016c-0.005,0.001 -0.009,0.002 -0.013,0.002c-0.008,0 -0.014,-0.004 -0.019,-0.013l-0.404,-0.807c-0.002,-0.005 -0.003,-0.009 -0.003,-0.012c-0,-0.008 0.004,-0.015 0.013,-0.02l0.032,-0.016c0.004,-0.002 0.009,-0.003 0.012,-0.003c0.008,0 0.015,0.005 0.02,0.014l0.404,0.807Z" fill="#d2232a"/>
    <path d="M3.949,7.63c-0,-0.017 0.008,-0.025 0.024,-0.025l0.414,-0c0.017,-0 0.025,0.008 0.025,0.024l-0,0.026c-0,0.017 -0.008,0.025 -0.025,0.025l-0.414,-0c-0.016,-0 -0.024,-0.008 -0.024,-0.025l-0,-0.025Zm-0,0.225c-0,-0.017 0.008,-0.026 0.024,-0.026l0.414,0c0.017,0 0.025,0.008 0.025,0.025l-0,0.026c-0,0.016 -0.008,0.024 -0.025,0.024l-0.414,0c-0.016,0 -0.024,-0.008 -0.024,-0.024l-0,-0.025Z" fill="#d2232a"/>
    <path d="M4.76,7.267c0.016,-0 0.024,0.008 0.024,0.024l0,0.857c0,0.017 -0.008,0.025 -0.024,0.025l-0.034,-0c-0.017,-0 -0.025,-0.008 -0.025,-0.025l0,-0.857c0,-0.016 0.008,-0.024 0.025,-0.024l0.034,-0Z" fill="#f5841f"/>
    <path d="M5.545,8.14c0.002,0.005 0.003,0.009 0.003,0.012c0,0.008 -0.004,0.015 -0.013,0.02l-0.032,0.016c-0.004,0.001 -0.008,0.002 -0.012,0.002c-0.008,0 -0.015,-0.004 -0.02,-0.013l-0.404,-0.807c-0.002,-0.005 -0.003,-0.009 -0.003,-0.012c0,-0.008 0.005,-0.015 0.014,-0.02l0.031,-0.016c0.005,-0.002 0.009,-0.003 0.013,-0.003c0.008,0 0.014,0.005 0.019,0.014l0.404,0.807Z" fill="#fdba12"/>
    <path d="M6.108,8.14c0.002,0.005 0.003,0.009 0.003,0.012c-0,0.008 -0.005,0.015 -0.014,0.02l-0.031,0.016c-0.005,0.001 -0.009,0.002 -0.013,0.002c-0.008,0 -0.014,-0.004 -0.019,-0.013l-0.404,-0.807c-0.002,-0.005 -0.003,-0.009 -0.003,-0.012c-0,-0.008 0.004,-0.015 0.013,-0.02l0.032,-0.016c0.004,-0.002 0.008,-0.003 0.012,-0.003c0.008,0 0.015,0.005 0.02,0.014l0.404,0.807Z" fill="#fdba12"/>
    <path d="M6.67,8.14c0.002,0.005 0.003,0.009 0.003,0.012c0,0.008 -0.004,0.015 -0.013,0.02l-0.032,0.016c-0.004,0.001 -0.009,0.002 -0.012,0.002c-0.008,0 -0.015,-0.004 -0.02,-0.013l-0.404,-0.807c-0.002,-0.005 -0.003,-0.009 -0.003,-0.012c0,-0.008 0.005,-0.015 0.014,-0.02l0.031,-0.016c0.005,-0.002 0.009,-0.003 0.013,-0.003c0.008,0 0.014,0.005 0.019,0.014l0.404,0.807Z" fill="#fdba12"/>
    <path d="M7.215,7.698c0.015,0 0.023,0.009 0.023,0.026c-0,0.045 -0.011,0.079 -0.032,0.103c-0.021,0.023 -0.052,0.035 -0.092,0.035c-0.021,0 -0.045,-0.007 -0.07,-0.021c-0.025,-0.014 -0.051,-0.034 -0.077,-0.06c-0.04,-0.039 -0.072,-0.059 -0.095,-0.059c-0.015,-0 -0.027,0.005 -0.035,0.017c-0.008,0.011 -0.012,0.028 -0.012,0.05c-0,0.014 -0.009,0.022 -0.027,0.022l-0.027,-0c-0.016,-0 -0.023,-0.009 -0.023,-0.026c-0,-0.044 0.01,-0.078 0.032,-0.102c0.021,-0.024 0.052,-0.036 0.092,-0.036c0.021,-0 0.044,0.007 0.07,0.021c0.026,0.014 0.051,0.035 0.078,0.061c0.039,0.039 0.071,0.059 0.094,0.059c0.015,0 0.027,-0.006 0.035,-0.017c0.007,-0.012 0.011,-0.029 0.011,-0.051c0,-0.007 0.003,-0.012 0.007,-0.016c0.005,-0.004 0.011,-0.006 0.02,-0.006l0.028,0Z" fill="#f5841f"/>
    <path d="M7.778,7.698c0.015,0 0.022,0.009 0.022,0.026c0,0.045 -0.01,0.079 -0.032,0.103c-0.021,0.023 -0.051,0.035 -0.091,0.035c-0.022,0 -0.045,-0.007 -0.071,-0.021c-0.025,-0.014 -0.051,-0.034 -0.077,-0.06c-0.04,-0.039 -0.071,-0.059 -0.095,-0.059c-0.015,-0 -0.026,0.005 -0.034,0.017c-0.009,0.011 -0.013,0.028 -0.013,0.05c0,0.014 -0.008,0.022 -0.026,0.022l-0.027,-0c-0.016,-0 -0.024,-0.009 -0.024,-0.026c0,-0.044 0.011,-0.078 0.032,-0.102c0.022,-0.024 0.053,-0.036 0.092,-0.036c0.021,-0 0.044,0.007 0.07,0.021c0.026,0.014 0.052,0.035 0.078,0.061c0.04,0.039 0.071,0.059 0.095,0.059c0.015,0 0.026,-0.006 0.034,-0.017c0.008,-0.012 0.012,-0.029 0.012,-0.051c-0,-0.007 0.002,-0.012 0.007,-0.016c0.004,-0.004 0.011,-0.006 0.019,-0.006l0.029,0Z" fill="#f5841f"/>
    <path d="M8.34,7.698c0.015,0 0.023,0.009 0.023,0.026c-0,0.045 -0.011,0.079 -0.032,0.103c-0.021,0.023 -0.052,0.035 -0.092,0.035c-0.021,0 -0.045,-0.007 -0.07,-0.021c-0.026,-0.014 -0.051,-0.034 -0.077,-0.06c-0.04,-0.039 -0.072,-0.059 -0.095,-0.059c-0.015,-0 -0.027,0.005 -0.035,0.017c-0.008,0.011 -0.012,0.028 -0.012,0.05c-0,0.014 -0.009,0.022 -0.027,0.022l-0.027,-0c-0.016,-0 -0.023,-0.009 -0.023,-0.026c-0,-0.044 0.01,-0.078 0.032,-0.102c0.021,-0.024 0.052,-0.036 0.092,-0.036c0.021,-0 0.044,0.007 0.07,0.021c0.025,0.014 0.051,0.035 0.077,0.061c0.04,0.039 0.072,0.059 0.095,0.059c0.015,0 0.027,-0.006 0.035,-0.017c0.007,-0.012 0.011,-0.029 0.011,-0.051c0,-0.007 0.003,-0.012 0.007,-0.016c0.005,-0.004 0.011,-0.006 0.02,-0.006l0.028,0Z" fill="#fdba12"/>
    <path d="M8.903,7.698c0.015,0 0.022,0.009 0.022,0.026c0,0.045 -0.011,0.079 -0.032,0.103c-0.021,0.023 -0.051,0.035 -0.091,0.035c-0.022,0 -0.045,-0.007 -0.071,-0.021c-0.025,-0.014 -0.051,-0.034 -0.077,-0.06c-0.04,-0.039 -0.071,-0.059 -0.095,-0.059c-0.015,-0 -0.026,0.005 -0.034,0.017c-0.009,0.011 -0.013,0.028 -0.013,0.05c0,0.014 -0.009,0.022 -0.026,0.022l-0.028,-0c-0.015,-0 -0.023,-0.009 -0.023,-0.026c-0,-0.044 0.011,-0.078 0.032,-0.102c0.022,-0.024 0.052,-0.036 0.092,-0.036c0.021,-0 0.044,0.007 0.07,0.021c0.026,0.014 0.052,0.035 0.078,0.061c0.04,0.039 0.071,0.059 0.095,0.059c0.015,0 0.026,-0.006 0.034,-0.017c0.008,-0.012 0.012,-0.029 0.012,-0.051c-0,-0.007 0.002,-0.012 0.007,-0.016c0.004,-0.004 0.011,-0.006 0.019,-0.006l0.029,0Z" fill="#fdba12"/>
    <path d="M13.416,7.924c0.016,-0 0.024,0.008 0.024,0.024l0,0.027c0,0.016 -0.008,0.024 -0.024,0.024l-0.41,0c-0.016,0 -0.024,-0.008 -0.024,-0.024l-0,-0.635c-0,-0.016 0.008,-0.024 0.024,-0.024l0.034,-0c0.017,-0 0.025,0.008 0.025,0.024l-0,0.584l0.351,-0Z" fill="#f5841f"/>
    <path d="M13.511,8.023c-0,-0.016 0.008,-0.024 0.024,-0.024l0.414,0c0.016,0 0.025,0.008 0.025,0.024l-0,0.027c-0,0.016 -0.009,0.024 -0.025,0.024l-0.414,0c-0.016,0 -0.024,-0.008 -0.024,-0.024l-0,-0.027Z" fill="#f5841f"/>
    <path d="M14.073,8.023c0,-0.016 0.008,-0.024 0.025,-0.024l0.414,0c0.016,0 0.024,0.008 0.024,0.024l0,0.027c0,0.016 -0.008,0.024 -0.024,0.024l-0.414,0c-0.017,0 -0.025,-0.008 -0.025,-0.024l0,-0.027Z" fill="#fdba12"/>
    <path d="M1.529,9.104c0.013,0.002 0.019,0.01 0.019,0.022c0,0.003 0,0.006 -0,0.008l-0.006,0.027c-0.003,0.016 -0.013,0.022 -0.03,0.019c-0.067,-0.014 -0.126,-0.042 -0.178,-0.083c-0.051,-0.042 -0.092,-0.094 -0.121,-0.158c-0.029,-0.063 -0.043,-0.132 -0.043,-0.209c-0,-0.076 0.014,-0.145 0.043,-0.209c0.029,-0.063 0.07,-0.115 0.121,-0.157c0.052,-0.041 0.111,-0.069 0.178,-0.083l0.008,-0.001c0.011,0 0.018,0.007 0.022,0.02l0.006,0.027c0,0.002 0,0.005 0,0.008c0,0.012 -0.006,0.02 -0.019,0.021c-0.054,0.011 -0.101,0.033 -0.142,0.068c-0.042,0.034 -0.074,0.078 -0.098,0.131c-0.023,0.052 -0.035,0.111 -0.035,0.175c0,0.065 0.012,0.123 0.035,0.176c0.024,0.053 0.056,0.097 0.098,0.131c0.041,0.035 0.088,0.057 0.142,0.067Z" fill="#f5841f"/>
    <path d="M2.171,9.14c0.002,0.005 0.003,0.009 0.003,0.012c-0,0.008 -0.005,0.015 -0.014,0.02l-0.031,0.015c-0.005,0.002 -0.009,0.003 -0.013,0.003c-0.008,0 -0.015,-0.004 -0.02,-0.013l-0.404,-0.807c-0.002,-0.005 -0.003,-0.009 -0.003,-0.013c0,-0.007 0.005,-0.014 0.014,-0.019l0.031,-0.016c0.005,-0.002 0.009,-0.003 0.013,-0.003c0.008,0 0.014,0.005 0.02,0.014l0.404,0.807Z" fill="#d2232a"/>
    <path d="M2.733,9.14c0.002,0.005 0.003,0.009 0.003,0.012c0,0.008 -0.005,0.015 -0.014,0.02l-0.031,0.015c-0.005,0.002 -0.009,0.003 -0.013,0.003c-0.008,0 -0.014,-0.004 -0.019,-0.013l-0.404,-0.807c-0.002,-0.005 -0.003,-0.009 -0.003,-0.013c-0,-0.007 0.004,-0.014 0.014,-0.019l0.031,-0.016c0.004,-0.002 0.009,-0.003 0.013,-0.003c0.007,0 0.014,0.005 0.019,0.014l0.404,0.807Z" fill="#f5841f"/>
    <path d="M2.894,9.104c0.054,-0.01 0.101,-0.032 0.143,-0.067c0.041,-0.034 0.074,-0.078 0.097,-0.131c0.024,-0.053 0.035,-0.111 0.035,-0.176c0,-0.064 -0.011,-0.123 -0.035,-0.175c-0.023,-0.053 -0.056,-0.097 -0.097,-0.131c-0.042,-0.035 -0.089,-0.057 -0.143,-0.068c-0.013,-0.001 -0.019,-0.009 -0.019,-0.021c-0,-0.003 0,-0.006 0.001,-0.008l0.006,-0.027c0.002,-0.016 0.012,-0.022 0.029,-0.019c0.067,0.014 0.127,0.042 0.178,0.083c0.052,0.042 0.092,0.094 0.121,0.157c0.029,0.064 0.043,0.133 0.043,0.209c0,0.077 -0.014,0.146 -0.043,0.209c-0.029,0.064 -0.069,0.116 -0.121,0.158c-0.051,0.041 -0.111,0.069 -0.178,0.083l-0.008,0.001c-0.011,-0 -0.018,-0.007 -0.021,-0.02l-0.006,-0.027c-0.001,-0.002 -0.001,-0.005 -0.001,-0.008c-0,-0.012 0.006,-0.02 0.019,-0.022Z" fill="#f5841f"/>
    <path d="M4.904,9.104c0.013,0.002 0.019,0.01 0.019,0.022c0,0.003 -0,0.006 -0.001,0.008l-0.006,0.027c-0.002,0.016 -0.012,0.022 -0.029,0.019c-0.067,-0.014 -0.126,-0.042 -0.178,-0.083c-0.051,-0.042 -0.092,-0.094 -0.121,-0.158c-0.029,-0.063 -0.043,-0.132 -0.043,-0.209c-0,-0.076 0.014,-0.145 0.043,-0.209c0.029,-0.063 0.07,-0.115 0.121,-0.157c0.052,-0.041 0.111,-0.069 0.178,-0.083l0.008,-0.001c0.011,0 0.018,0.007 0.021,0.02l0.006,0.027c0.001,0.002 0.001,0.005 0.001,0.008c0,0.012 -0.006,0.02 -0.019,0.021c-0.054,0.011 -0.101,0.033 -0.143,0.068c-0.041,0.034 -0.073,0.078 -0.097,0.131c-0.023,0.052 -0.035,0.111 -0.035,0.175c-0,0.065 0.012,0.123 0.035,0.176c0.024,0.053 0.056,0.097 0.097,0.131c0.042,0.035 0.089,0.057 0.143,0.067Z" fill="#f5841f"/>
    <path d="M5.545,9.14c0.002,0.005 0.003,0.009 0.003,0.012c0,0.008 -0.004,0.015 -0.013,0.02l-0.032,0.015c-0.004,0.002 -0.008,0.003 -0.012,0.003c-0.008,0 -0.015,-0.004 -0.02,-0.013l-0.404,-0.807c-0.002,-0.005 -0.003,-0.009 -0.003,-0.013c0,-0.007 0.005,-0.014 0.014,-0.019l0.031,-0.016c0.005,-0.002 0.009,-0.003 0.013,-0.003c0.008,0 0.014,0.005 0.019,0.014l0.404,0.807Z" fill="#fdba12"/>
    <path d="M6.108,9.14c0.002,0.005 0.003,0.009 0.003,0.012c-0,0.008 -0.005,0.015 -0.014,0.02l-0.031,0.015c-0.005,0.002 -0.009,0.003 -0.013,0.003c-0.008,0 -0.014,-0.004 -0.019,-0.013l-0.404,-0.807c-0.002,-0.005 -0.003,-0.009 -0.003,-0.013c-0,-0.007 0.004,-0.014 0.013,-0.019l0.032,-0.016c0.004,-0.002 0.008,-0.003 0.012,-0.003c0.008,0 0.015,0.005 0.02,0.014l0.404,0.807Z" fill="#f5841f"/>
    <path d="M6.67,9.14c0.002,0.005 0.003,0.009 0.003,0.012c0,0.008 -0.004,0.015 -0.013,0.02l-0.032,0.015c-0.004,0.002 -0.009,0.003 -0.012,0.003c-0.008,0 -0.015,-0.004 -0.02,-0.013l-0.404,-0.807c-0.002,-0.005 -0.003,-0.009 -0.003,-0.013c0,-0.007 0.005,-0.014 0.014,-0.019l0.031,-0.016c0.005,-0.002 0.009,-0.003 0.013,-0.003c0.008,0 0.014,0.005 0.019,0.014l0.404,0.807Z" fill="#f5841f"/>
    <path d="M6.832,9.104c0.053,-0.01 0.101,-0.032 0.142,-0.067c0.041,-0.034 0.074,-0.078 0.097,-0.131c0.024,-0.053 0.036,-0.111 0.036,-0.176c-0,-0.064 -0.012,-0.123 -0.036,-0.175c-0.023,-0.053 -0.056,-0.097 -0.097,-0.131c-0.041,-0.035 -0.089,-0.057 -0.142,-0.068c-0.013,-0.001 -0.02,-0.009 -0.02,-0.021c0,-0.003 0,-0.006 0.001,-0.008l0.006,-0.027c0.003,-0.016 0.012,-0.022 0.029,-0.019c0.068,0.014 0.127,0.042 0.178,0.083c0.052,0.042 0.092,0.094 0.121,0.157c0.029,0.064 0.044,0.133 0.044,0.209c-0,0.077 -0.015,0.146 -0.044,0.209c-0.029,0.064 -0.069,0.116 -0.121,0.158c-0.051,0.041 -0.11,0.069 -0.178,0.083l-0.007,0.001c-0.012,-0 -0.019,-0.007 -0.022,-0.02l-0.006,-0.027c-0.001,-0.002 -0.001,-0.005 -0.001,-0.008c0,-0.012 0.007,-0.02 0.02,-0.022Z" fill="#f5841f"/>
    <path d="M7.324,9.023c-0,-0.016 0.008,-0.024 0.024,-0.024l0.414,-0c0.016,-0 0.024,0.008 0.024,0.024l0,0.027c0,0.016 -0.008,0.024 -0.024,0.024l-0.414,0c-0.016,0 -0.024,-0.008 -0.024,-0.024l-0,-0.027Z" fill="#d2232a"/>
    <path d="M14.545,9.14c0.002,0.005 0.003,0.009 0.003,0.012c-0,0.008 -0.005,0.015 -0.014,0.02l-0.031,0.015c-0.005,0.002 -0.009,0.003 -0.013,0.003c-0.008,0 -0.014,-0.004 -0.02,-0.013l-0.404,-0.807c-0.001,-0.005 -0.002,-0.009 -0.002,-0.013c-0,-0.007 0.004,-0.014 0.013,-0.019l0.032,-0.016c0.004,-0.002 0.008,-0.003 0.012,-0.003c0.008,0 0.015,0.005 0.02,0.014l0.404,0.807Z" fill="#fdba12"/>
    <path d="M14.636,8.63c-0,-0.017 0.008,-0.026 0.024,-0.026l0.414,0c0.016,0 0.024,0.009 0.024,0.025l0,0.026c0,0.017 -0.008,0.025 -0.024,0.025l-0.414,-0c-0.016,-0 -0.024,-0.008 -0.024,-0.025l-0,-0.025Zm-0,0.224c-0,-0.016 0.008,-0.025 0.024,-0.025l0.414,0c0.016,0 0.024,0.008 0.024,0.024l0,0.027c0,0.016 -0.008,0.024 -0.024,0.024l-0.414,0c-0.016,0 -0.024,-0.008 -0.024,-0.024l-0,-0.026Z" fill="#fdba12"/>
    <path d="M15.198,8.63c0,-0.017 0.008,-0.026 0.025,-0.026l0.413,0c0.017,0 0.025,0.009 0.025,0.025l-0,0.026c-0,0.017 -0.008,0.025 -0.025,0.025l-0.413,-0c-0.017,-0 -0.025,-0.008 -0.025,-0.025l0,-0.025Zm0,0.224c0,-0.016 0.008,-0.025 0.025,-0.025l0.413,0c0.017,0 0.025,0.008 0.025,0.024l-0,0.027c-0,0.016 -0.008,0.024 -0.025,0.024l-0.413,0c-0.017,0 -0.025,-0.008 -0.025,-0.024l0,-0.026Z" fill="#fdba12"/>
    <path d="M15.761,9.023c-0,-0.016 0.008,-0.024 0.024,-0.024l0.414,-0c0.016,-0 0.024,0.008 0.024,0.024l0,0.027c0,0.016 -0.008,0.024 -0.024,0.024l-0.414,0c-0.016,0 -0.024,-0.008 -0.024,-0.024l-0,-0.027Z" fill="#f5841f"/>
    <path d="M16.323,9.023c0,-0.016 0.008,-0.024 0.025,-0.024l0.413,-0c0.017,-0 0.025,0.008 0.025,0.024l-0,0.027c-0,0.016 -0.008,0.024 -0.025,0.024l-0.413,0c-0.017,0 -0.025,-0.008 -0.025,-0.024l0,-0.027Z" fill="#f5841f"/>
    <path d="M2.171,10.139c0.002,0.006 0.003,0.01 0.003,0.013c-0,0.008 -0.005,0.014 -0.014,0.02l-0.031,0.015c-0.005,0.002 -0.009,0.003 -0.013,0.003c-0.008,0 -0.015,-0.004 -0.02,-0.013l-0.404,-0.807c-0.002,-0.005 -0.003,-0.009 -0.003,-0.013c0,-0.007 0.005,-0.014 0.014,-0.019l0.031,-0.016c0.005,-0.002 0.009,-0.003 0.013,-0.003c0.008,0 0.014,0.005 0.02,0.014l0.404,0.806Z" fill="#d2232a"/>
    <path d="M2.613,9.922c-0.007,0.027 -0.021,0.048 -0.043,0.064c-0.022,0.015 -0.047,0.023 -0.077,0.023c-0.029,-0 -0.055,-0.008 -0.076,-0.023c-0.022,-0.015 -0.037,-0.036 -0.044,-0.064l-0.145,-0.579c-0,-0.002 -0.001,-0.005 -0.001,-0.008c0,-0.006 0.002,-0.011 0.006,-0.014c0.004,-0.004 0.01,-0.006 0.017,-0.006l0.034,0c0.016,0 0.025,0.007 0.027,0.022l0.144,0.571c0.002,0.008 0.007,0.015 0.014,0.02c0.007,0.004 0.015,0.006 0.024,0.006c0.01,0 0.018,-0.002 0.025,-0.006c0.007,-0.005 0.012,-0.012 0.014,-0.02l0.142,-0.571c0.004,-0.015 0.013,-0.022 0.028,-0.022l0.035,0c0.014,0 0.022,0.007 0.022,0.019c-0,0.004 -0.001,0.007 -0.001,0.009l-0.145,0.579Z" fill="#d2232a"/>
    <path d="M5.545,10.139c0.002,0.006 0.003,0.01 0.003,0.013c0,0.008 -0.004,0.014 -0.013,0.02l-0.032,0.015c-0.004,0.002 -0.008,0.003 -0.012,0.003c-0.008,0 -0.015,-0.004 -0.02,-0.013l-0.404,-0.807c-0.002,-0.005 -0.003,-0.009 -0.003,-0.013c0,-0.007 0.005,-0.014 0.014,-0.019l0.031,-0.016c0.005,-0.002 0.009,-0.003 0.013,-0.003c0.008,0 0.014,0.005 0.019,0.014l0.404,0.806Z" fill="#f5841f"/>
    <path d="M6.108,10.139c0.002,0.006 0.003,0.01 0.003,0.013c-0,0.008 -0.005,0.014 -0.014,0.02l-0.031,0.015c-0.005,0.002 -0.009,0.003 -0.013,0.003c-0.008,0 -0.014,-0.004 -0.019,-0.013l-0.404,-0.807c-0.002,-0.005 -0.003,-0.009 -0.003,-0.013c-0,-0.007 0.004,-0.014 0.013,-0.019l0.032,-0.016c0.004,-0.002 0.008,-0.003 0.012,-0.003c0.008,0 0.015,0.005 0.02,0.014l0.404,0.806Z" fill="#f5841f"/>
    <path d="M6.67,10.139c0.002,0.006 0.003,0.01 0.003,0.013c0,0.008 -0.004,0.014 -0.013,0.02l-0.032,0.015c-0.004,0.002 -0.009,0.003 -0.012,0.003c-0.008,0 -0.015,-0.004 -0.02,-0.013l-0.404,-0.807c-0.002,-0.005 -0.003,-0.009 -0.003,-0.013c0,-0.007 0.005,-0.014 0.014,-0.019l0.031,-0.016c0.005,-0.002 0.009,-0.003 0.013,-0.003c0.008,0 0.014,0.005 0.019,0.014l0.404,0.806Z" fill="#d2232a"/>
    <path d="M6.832,10.104c0.053,-0.01 0.101,-0.033 0.142,-0.067c0.041,-0.035 0.074,-0.078 0.097,-0.131c0.024,-0.053 0.036,-0.111 0.036,-0.176c-0,-0.064 -0.012,-0.123 -0.036,-0.175c-0.023,-0.053 -0.056,-0.097 -0.097,-0.131c-0.041,-0.035 -0.089,-0.057 -0.142,-0.068c-0.013,-0.002 -0.02,-0.009 -0.02,-0.021c0,-0.003 0,-0.006 0.001,-0.008l0.006,-0.027c0.003,-0.016 0.012,-0.022 0.029,-0.019c0.068,0.014 0.127,0.041 0.178,0.083c0.052,0.042 0.092,0.094 0.121,0.157c0.029,0.064 0.044,0.133 0.044,0.209c-0,0.076 -0.015,0.146 -0.044,0.209c-0.029,0.063 -0.069,0.116 -0.121,0.157c-0.051,0.042 -0.11,0.07 -0.178,0.083l-0.007,0.001c-0.012,0 -0.019,-0.006 -0.022,-0.019l-0.006,-0.027c-0.001,-0.002 -0.001,-0.005 -0.001,-0.008c0,-0.013 0.007,-0.02 0.02,-0.022Z" fill="#d2232a"/>
    <path d="M7.886,9.63c0,-0.017 0.008,-0.026 0.025,-0.026l0.413,0c0.017,0 0.025,0.008 0.025,0.025l-0,0.026c-0,0.016 -0.008,0.025 -0.025,0.025l-0.413,-0c-0.017,-0 -0.025,-0.009 -0.025,-0.025l0,-0.025Zm0,0.224c0,-0.017 0.008,-0.025 0.025,-0.025l0.413,-0c0.017,-0 0.025,0.008 0.025,0.024l-0,0.027c-0,0.016 -0.008,0.024 -0.025,0.024l-0.413,0c-0.017,0 -0.025,-0.008 -0.025,-0.024l0,-0.026Z" fill="#d2232a"/>
    <path d="M8.449,9.63c-0,-0.017 0.008,-0.026 0.024,-0.026l0.414,0c0.016,0 0.024,0.008 0.024,0.025l0,0.026c0,0.016 -0.008,0.025 -0.024,0.025l-0.414,-0c-0.016,-0 -0.024,-0.009 -0.024,-0.025l-0,-0.025Zm-0,0.224c-0,-0.017 0.008,-0.025 0.024,-0.025l0.414,-0c0.016,-0 0.024,0.008 0.024,0.024l0,0.027c0,0.016 -0.008,0.024 -0.024,0.024l-0.414,0c-0.016,0 -0.024,-0.008 -0.024,-0.024l-0,-0.026Z" fill="#d2232a"/>
    <path d="M9.011,9.63c0,-0.017 0.008,-0.026 0.025,-0.026l0.413,0c0.017,0 0.025,0.008 0.025,0.025l-0,0.026c-0,0.016 -0.008,0.025 -0.025,0.025l-0.413,-0c-0.017,-0 -0.025,-0.009 -0.025,-0.025l0,-0.025Zm0,0.224c0,-0.017 0.008,-0.025 0.025,-0.025l0.413,-0c0.017,-0 0.025,0.008 0.025,0.024l-0,0.027c-0,0.016 -0.008,0.024 -0.025,0.024l-0.413,0c-0.017,0 -0.025,-0.008 -0.025,-0.024l0,-0.026Z" fill="#f5841f"/>
    <path d="M9.574,10.023c-0,-0.016 0.008,-0.024 0.024,-0.024l0.414,-0c0.016,-0 0.024,0.008 0.024,0.024l0,0.027c0,0.016 -0.008,0.024 -0.024,0.024l-0.414,0c-0.016,0 -0.024,-0.008 -0.024,-0.024l-0,-0.027Z" fill="#f5841f"/>
    <path d="M10.136,10.023c0,-0.016 0.008,-0.024 0.025,-0.024l0.413,-0c0.017,-0 0.025,0.008 0.025,0.024l-0,0.027c-0,0.016 -0.008,0.024 -0.025,0.024l-0.413,0c-0.017,0 -0.025,-0.008 -0.025,-0.024l0,-0.027Z" fill="#f5841f"/>
    <path d="M10.699,10.023c-0,-0.016 0.008,-0.024 0.024,-0.024l0.414,-0c0.016,-0 0.024,0.008 0.024,0.024l0,0.027c0,0.016 -0.008,0.024 -0.024,0.024l-0.414,0c-0.016,0 -0.024,-0.008 -0.024,-0.024l-0,-0.027Z" fill="#f5841f"/>
    <path d="M11.261,10.023c0,-0.016 0.008,-0.024 0.024,-0.024l0.414,-0c0.017,-0 0.025,0.008 0.025,0.024l-0,0.027c-0,0.016 -0.008,0.024 -0.025,0.024l-0.414,0c-0.016,0 -0.024,-0.008 -0.024,-0.024l0,-0.027Z" fill="#f5841f"/>
    <path d="M11.823,10.023c0,-0.016 0.009,-0.024 0.025,-0.024l0.414,-0c0.016,-0 0.024,0.008 0.024,0.024l0,0.027c0,0.016 -0.008,0.024 -0.024,0.024l-0.414,0c-0.016,0 -0.025,-0.008 -0.025,-0.024l0,-0.027Z" fill="#f5841f"/>
    <path d="M14.545,10.139c0.002,0.006 0.003,0.01 0.003,0.013c-0,0.008 -0.005,0.014 -0.014,0.02l-0.031,0.015c-0.005,0.002 -0.009,0.003 -0.013,0.003c-0.008,0 -0.014,-0.004 -0.02,-0.013l-0.404,-0.807c-0.001,-0.005 -0.002,-0.009 -0.002,-0.013c-0,-0.007 0.004,-0.014 0.013,-0.019l0.032,-0.016c0.004,-0.002 0.008,-0.003 0.012,-0.003c0.008,0 0.015,0.005 0.02,0.014l0.404,0.806Z" fill="#fdba12"/>
    <path d="M15.107,10.139c0.002,0.006 0.003,0.01 0.003,0.013c0,0.008 -0.004,0.014 -0.013,0.02l-0.032,0.015c-0.004,0.002 -0.009,0.003 -0.012,0.003c-0.008,0 -0.015,-0.004 -0.02,-0.013l-0.404,-0.807c-0.002,-0.005 -0.003,-0.009 -0.003,-0.013c0,-0.007 0.005,-0.014 0.014,-0.019l0.031,-0.016c0.005,-0.002 0.009,-0.003 0.013,-0.003c0.008,0 0.014,0.005 0.019,0.014l0.404,0.806Z" fill="#fdba12"/>
    <path d="M15.67,10.139c0.002,0.006 0.003,0.01 0.003,0.013c-0,0.008 -0.005,0.014 -0.014,0.02l-0.031,0.015c-0.005,0.002 -0.009,0.003 -0.013,0.003c-0.008,0 -0.014,-0.004 -0.02,-0.013l-0.404,-0.807c-0.002,-0.005 -0.003,-0.009 -0.003,-0.013c0,-0.007 0.005,-0.014 0.014,-0.019l0.031,-0.016c0.005,-0.002 0.009,-0.003 0.013,-0.003c0.008,0 0.015,0.005 0.02,0.014l0.404,0.806Z" fill="#fdba12"/>
    <path d="M16.232,10.139c0.002,0.006 0.003,0.01 0.003,0.013c0,0.008 -0.004,0.014 -0.014,0.02l-0.031,0.015c-0.004,0.002 -0.009,0.003 -0.013,0.003c-0.007,0 -0.014,-0.004 -0.019,-0.013l-0.404,-0.807c-0.002,-0.005 -0.003,-0.009 -0.003,-0.013c-0,-0.007 0.005,-0.014 0.014,-0.019l0.031,-0.016c0.004,-0.002 0.009,-0.003 0.013,-0.003c0.007,0 0.014,0.005 0.019,0.014l0.404,0.806Z" fill="#fdba12"/>
    <path d="M16.795,10.139c0.002,0.006 0.003,0.01 0.003,0.013c-0,0.008 -0.005,0.014 -0.014,0.02l-0.031,0.015c-0.005,0.002 -0.009,0.003 -0.013,0.003c-0.008,0 -0.014,-0.004 -0.02,-0.013l-0.404,-0.807c-0.002,-0.005 -0.003,-0.009 -0.003,-0.013c0,-0.007 0.005,-0.014 0.014,-0.019l0.031,-0.016c0.005,-0.002 0.009,-0.003 0.013,-0.003c0.008,0 0.014,0.005 0.02,0.014l0.404,0.806Z" fill="#f5841f"/>
    <path d="M17.357,10.139c0.002,0.006 0.003,0.01 0.003,0.013c0,0.008 -0.004,0.014 -0.014,0.02l-0.031,0.015c-0.004,0.002 -0.009,0.003 -0.013,0.003c-0.007,0 -0.014,-0.004 -0.019,-0.013l-0.404,-0.807c-0.002,-0.005 -0.003,-0.009 -0.003,-0.013c-0,-0.007 0.004,-0.014 0.014,-0.019l0.031,-0.016c0.004,-0.002 0.009,-0.003 0.013,-0.003c0.007,0 0.014,0.005 0.019,0.014l0.404,0.806Z" fill="#f5841f"/>
    <path d="M6.108,11.139c0.002,0.006 0.003,0.01 0.003,0.013c-0,0.008 -0.005,0.014 -0.014,0.02l-0.031,0.015c-0.005,0.002 -0.009,0.003 -0.013,0.003c-0.008,0 -0.014,-0.004 -0.019,-0.014l-0.404,-0.806c-0.002,-0.005 -0.003,-0.01 -0.003,-0.013c-0,-0.008 0.004,-0.014 0.013,-0.019l0.032,-0.016c0.004,-0.002 0.008,-0.003 0.012,-0.003c0.008,0 0.015,0.005 0.02,0.014l0.404,0.806Z" fill="#d2232a"/>
    <path d="M6.55,10.922c-0.007,0.027 -0.021,0.048 -0.043,0.064c-0.021,0.015 -0.047,0.022 -0.076,0.022c-0.03,0 -0.055,-0.007 -0.077,-0.022c-0.022,-0.015 -0.036,-0.036 -0.044,-0.064l-0.144,-0.579c-0.001,-0.002 -0.001,-0.005 -0.001,-0.008c-0,-0.006 0.002,-0.011 0.005,-0.014c0.004,-0.004 0.01,-0.006 0.017,-0.006l0.034,0c0.016,0 0.025,0.007 0.028,0.022l0.144,0.571c0.001,0.008 0.006,0.015 0.013,0.019c0.007,0.005 0.016,0.007 0.025,0.007c0.009,0 0.017,-0.002 0.024,-0.007c0.007,-0.004 0.012,-0.011 0.014,-0.019l0.143,-0.571c0.004,-0.015 0.013,-0.022 0.027,-0.022l0.035,0c0.015,0 0.022,0.006 0.022,0.019c-0,0.004 -0.001,0.007 -0.001,0.009l-0.145,0.579Z" fill="#d2232a"/>
    <path d="M6.832,11.104c0.053,-0.01 0.101,-0.033 0.142,-0.067c0.041,-0.035 0.074,-0.078 0.097,-0.131c0.024,-0.053 0.036,-0.111 0.036,-0.176c-0,-0.064 -0.012,-0.123 -0.036,-0.176c-0.023,-0.052 -0.056,-0.096 -0.097,-0.13c-0.041,-0.035 -0.089,-0.057 -0.142,-0.068c-0.013,-0.002 -0.02,-0.009 -0.02,-0.021c0,-0.004 0,-0.006 0.001,-0.008l0.006,-0.027c0.003,-0.016 0.012,-0.022 0.029,-0.019c0.068,0.014 0.127,0.041 0.178,0.083c0.052,0.042 0.092,0.094 0.121,0.157c0.029,0.063 0.044,0.133 0.044,0.209c-0,0.076 -0.015,0.146 -0.044,0.209c-0.029,0.063 -0.069,0.116 -0.121,0.157c-0.051,0.042 -0.11,0.07 -0.178,0.083l-0.007,0.001c-0.012,0 -0.019,-0.006 -0.022,-0.019l-0.006,-0.028c-0.001,-0.001 -0.001,-0.004 -0.001,-0.007c0,-0.013 0.007,-0.02 0.02,-0.022Z" fill="#d2232a"/>
    <path d="M10.608,11.139c0.002,0.006 0.003,0.01 0.003,0.013c-0,0.008 -0.005,0.014 -0.014,0.02l-0.031,0.015c-0.005,0.002 -0.009,0.003 -0.013,0.003c-0.008,0 -0.015,-0.004 -0.02,-0.014l-0.404,-0.806c-0.002,-0.005 -0.003,-0.01 -0.003,-0.013c0,-0.008 0.005,-0.014 0.014,-0.019l0.031,-0.016c0.005,-0.002 0.009,-0.003 0.013,-0.003c0.008,0 0.014,0.005 0.02,0.014l0.404,0.806Z" fill="#d2232a"/>
    <path d="M10.699,11.023c-0,-0.016 0.008,-0.024 0.024,-0.024l0.414,-0c0.016,-0 0.024,0.008 0.024,0.024l0,0.027c0,0.016 -0.008,0.024 -0.024,0.024l-0.414,-0c-0.016,-0 -0.024,-0.008 -0.024,-0.024l-0,-0.027Z" fill="#d2232a"/>
    <path d="M11.331,11.104c0.054,-0.01 0.101,-0.033 0.143,-0.067c0.041,-0.035 0.074,-0.078 0.097,-0.131c0.024,-0.053 0.035,-0.111 0.035,-0.176c0,-0.064 -0.011,-0.123 -0.035,-0.176c-0.023,-0.052 -0.056,-0.096 -0.097,-0.13c-0.042,-0.035 -0.089,-0.057 -0.143,-0.068c-0.013,-0.002 -0.019,-0.009 -0.019,-0.021c-0,-0.004 0,-0.006 0.001,-0.008l0.006,-0.027c0.002,-0.016 0.012,-0.022 0.029,-0.019c0.067,0.014 0.127,0.041 0.178,0.083c0.052,0.042 0.092,0.094 0.121,0.157c0.029,0.063 0.043,0.133 0.043,0.209c0,0.076 -0.014,0.146 -0.043,0.209c-0.029,0.063 -0.069,0.116 -0.121,0.157c-0.051,0.042 -0.111,0.07 -0.178,0.083l-0.008,0.001c-0.011,0 -0.018,-0.006 -0.021,-0.019l-0.006,-0.028c-0.001,-0.001 -0.001,-0.004 -0.001,-0.007c-0,-0.013 0.006,-0.02 0.019,-0.022Z" fill="#d2232a"/>
    <path d="M12.857,11.139c0.002,0.006 0.003,0.01 0.003,0.013c0,0.008 -0.004,0.014 -0.013,0.02l-0.032,0.015c-0.004,0.002 -0.008,0.003 -0.012,0.003c-0.008,0 -0.015,-0.004 -0.02,-0.014l-0.404,-0.806c-0.002,-0.005 -0.003,-0.01 -0.003,-0.013c0,-0.008 0.005,-0.014 0.014,-0.019l0.031,-0.016c0.005,-0.002 0.009,-0.003 0.013,-0.003c0.008,0 0.014,0.005 0.019,0.014l0.404,0.806Z" fill="#f5841f"/>
    <path d="M13.42,11.139c0.002,0.006 0.003,0.01 0.003,0.013c-0,0.008 -0.005,0.014 -0.014,0.02l-0.031,0.015c-0.005,0.002 -0.009,0.003 -0.013,0.003c-0.008,0 -0.014,-0.004 -0.019,-0.014l-0.404,-0.806c-0.002,-0.005 -0.003,-0.01 -0.003,-0.013c-0,-0.008 0.004,-0.014 0.013,-0.019l0.032,-0.016c0.004,-0.002 0.008,-0.003 0.012,-0.003c0.008,0 0.015,0.005 0.02,0.014l0.404,0.806Z" fill="#f5841f"/>
    <path d="M13.982,11.139c0.002,0.006 0.003,0.01 0.003,0.013c0,0.008 -0.004,0.014 -0.013,0.02l-0.032,0.015c-0.004,0.002 -0.009,0.003 -0.012,0.003c-0.008,0 -0.015,-0.004 -0.02,-0.014l-0.404,-0.806c-0.002,-0.005 -0.003,-0.01 -0.003,-0.013c0,-0.008 0.005,-0.014 0.014,-0.019l0.031,-0.016c0.005,-0.002 0.009,-0.003 0.013,-0.003c0.008,0 0.014,0.005 0.019,0.014l0.404,0.806Z" fill="#fdba12"/>
    <path d="M14.545,11.139c0.002,0.006 0.003,0.01 0.003,0.013c-0,0.008 -0.005,0.014 -0.014,0.02l-0.031,0.015c-0.005,0.002 -0.009,0.003 -0.013,0.003c-0.008,0 -0.014,-0.004 -0.02,-0.014l-0.404,-0.806c-0.001,-0.005 -0.002,-0.01 -0.002,-0.013c-0,-0.008 0.004,-0.014 0.013,-0.019l0.032,-0.016c0.004,-0.002 0.008,-0.003 0.012,-0.003c0.008,0 0.015,0.005 0.02,0.014l0.404,0.806Z" fill="#fdba12"/>
    <path d="M15.041,10.315c0.016,0 0.024,0.008 0.024,0.025l0,0.395c0,0.095 -0.023,0.164 -0.069,0.208c-0.046,0.044 -0.103,0.065 -0.172,0.065c-0.049,0 -0.097,-0.009 -0.143,-0.029c-0.011,-0.004 -0.016,-0.011 -0.016,-0.02c0,-0.004 0.001,-0.008 0.003,-0.012l0.01,-0.023c0.004,-0.011 0.011,-0.016 0.02,-0.016c0.005,-0 0.009,0.001 0.011,0.002c0.041,0.015 0.077,0.022 0.109,0.022c0.045,0 0.083,-0.015 0.115,-0.046c0.032,-0.031 0.048,-0.081 0.048,-0.151l0,-0.344l-0.214,0c-0.016,0 -0.025,-0.008 -0.025,-0.024l0,-0.027c0,-0.017 0.009,-0.025 0.025,-0.025l0.274,0Z" fill="#fdba12"/>
    <path d="M15.603,10.315c0.017,0 0.025,0.008 0.025,0.025l-0,0.395c-0,0.095 -0.023,0.164 -0.069,0.208c-0.046,0.044 -0.104,0.065 -0.173,0.065c-0.049,0 -0.096,-0.009 -0.143,-0.029c-0.01,-0.004 -0.015,-0.011 -0.015,-0.02c-0,-0.004 0.001,-0.008 0.003,-0.012l0.009,-0.023c0.004,-0.011 0.011,-0.016 0.021,-0.016c0.004,-0 0.008,0.001 0.011,0.002c0.041,0.015 0.077,0.022 0.108,0.022c0.045,0 0.084,-0.015 0.116,-0.046c0.032,-0.031 0.048,-0.081 0.048,-0.151l-0,-0.344l-0.215,0c-0.016,0 -0.024,-0.008 -0.024,-0.024l-0,-0.027c-0,-0.017 0.008,-0.025 0.024,-0.025l0.274,0Z" fill="#fdba12"/>
    <path d="M16.232,11.139c0.002,0.006 0.003,0.01 0.003,0.013c0,0.008 -0.004,0.014 -0.014,0.02l-0.031,0.015c-0.004,0.002 -0.009,0.003 -0.013,0.003c-0.007,0 -0.014,-0.004 -0.019,-0.014l-0.404,-0.806c-0.002,-0.005 -0.003,-0.01 -0.003,-0.013c-0,-0.008 0.005,-0.014 0.014,-0.019l0.031,-0.016c0.004,-0.002 0.009,-0.003 0.013,-0.003c0.007,0 0.014,0.005 0.019,0.014l0.404,0.806Z" fill="#fdba12"/>
    <path d="M16.728,10.315c0.016,0 0.025,0.008 0.025,0.025l-0,0.395c-0,0.095 -0.023,0.164 -0.069,0.208c-0.046,0.044 -0.104,0.065 -0.173,0.065c-0.049,0 -0.097,-0.009 -0.143,-0.029c-0.01,-0.004 -0.015,-0.011 -0.015,-0.02c-0,-0.004 0.001,-0.008 0.002,-0.012l0.01,-0.023c0.004,-0.011 0.011,-0.016 0.021,-0.016c0.004,-0 0.008,0.001 0.011,0.002c0.041,0.015 0.077,0.022 0.108,0.022c0.045,0 0.084,-0.015 0.116,-0.046c0.032,-0.031 0.047,-0.081 0.047,-0.151l0,-0.344l-0.214,0c-0.016,0 -0.024,-0.008 -0.024,-0.024l-0,-0.027c-0,-0.017 0.008,-0.025 0.024,-0.025l0.274,0Z" fill="#f5841f"/>
    <path d="M17.357,11.139c0.002,0.006 0.003,0.01 0.003,0.013c0,0.008 -0.004,0.014 -0.014,0.02l-0.031,0.015c-0.004,0.002 -0.009,0.003 -0.013,0.003c-0.007,0 -0.014,-0.004 -0.019,-0.014l-0.404,-0.806c-0.002,-0.005 -0.003,-0.01 -0.003,-0.013c-0,-0.008 0.004,-0.014 0.014,-0.019l0.031,-0.016c0.004,-0.002 0.009,-0.003 0.013,-0.003c0.007,0 0.014,0.005 0.019,0.014l0.404,0.806Z" fill="#f5841f"/>
    <path d="M17.519,11.104c0.053,-0.01 0.1,-0.033 0.142,-0.067c0.041,-0.035 0.074,-0.078 0.097,-0.131c0.024,-0.053 0.035,-0.111 0.035,-0.176c0,-0.064 -0.011,-0.123 -0.035,-0.176c-0.023,-0.052 -0.056,-0.096 -0.097,-0.13c-0.042,-0.035 -0.089,-0.057 -0.142,-0.068c-0.014,-0.002 -0.02,-0.009 -0.02,-0.021c-0,-0.004 0,-0.006 0.001,-0.008l0.006,-0.027c0.002,-0.016 0.012,-0.022 0.029,-0.019c0.067,0.014 0.127,0.041 0.178,0.083c0.052,0.042 0.092,0.094 0.121,0.157c0.029,0.063 0.044,0.133 0.044,0.209c-0,0.076 -0.015,0.146 -0.044,0.209c-0.029,0.063 -0.069,0.116 -0.121,0.157c-0.051,0.042 -0.111,0.07 -0.178,0.083l-0.008,0.001c-0.011,0 -0.018,-0.006 -0.021,-0.019l-0.006,-0.028c-0.001,-0.001 -0.001,-0.004 -0.001,-0.007c-0,-0.013 0.006,-0.02 0.02,-0.022Z" fill="#f5841f"/>
    <path d="M12.781,11.333c0.005,-0.009 0.012,-0.014 0.02,-0.014c0.004,0 0.008,0.001 0.012,0.003l0.032,0.016c0.009,0.005 0.013,0.011 0.013,0.019c0,0.003 -0.001,0.008 -0.003,0.013l-0.404,0.806c-0.005,0.009 -0.011,0.014 -0.019,0.014c-0.003,-0 -0.008,-0.001 -0.013,-0.003l-0.031,-0.016c-0.009,-0.005 -0.014,-0.011 -0.014,-0.019c0,-0.003 0.001,-0.008 0.003,-0.013l0.404,-0.806Z" fill="#d2232a"/>
    <path d="M13.353,11.315c0.017,0 0.025,0.008 0.025,0.025l-0,0.395c-0,0.095 -0.023,0.164 -0.069,0.208c-0.046,0.044 -0.104,0.065 -0.173,0.065c-0.049,0 -0.096,-0.009 -0.143,-0.029c-0.01,-0.004 -0.015,-0.011 -0.015,-0.02c-0,-0.004 0.001,-0.008 0.003,-0.012l0.009,-0.024c0.004,-0.01 0.011,-0.015 0.021,-0.015c0.005,-0 0.008,0 0.011,0.002c0.041,0.015 0.077,0.022 0.108,0.022c0.045,0 0.084,-0.015 0.116,-0.046c0.032,-0.031 0.048,-0.081 0.048,-0.151l-0,-0.344l-0.215,0c-0.016,0 -0.024,-0.008 -0.024,-0.024l0,-0.027c0,-0.017 0.008,-0.025 0.024,-0.025l0.274,0Z" fill="#f5841f"/>
    <path d="M13.982,12.139c0.002,0.005 0.003,0.01 0.003,0.013c0,0.008 -0.004,0.014 -0.013,0.019l-0.032,0.016c-0.004,0.002 -0.009,0.003 -0.012,0.003c-0.008,-0 -0.015,-0.005 -0.02,-0.014l-0.404,-0.806c-0.002,-0.005 -0.003,-0.01 -0.003,-0.013c0,-0.008 0.005,-0.014 0.014,-0.019l0.031,-0.016c0.005,-0.002 0.009,-0.003 0.013,-0.003c0.008,0 0.014,0.005 0.019,0.014l0.404,0.806Z" fill="#fdba12"/>
    <path d="M14.478,11.315c0.017,0 0.025,0.008 0.025,0.025l-0,0.395c-0,0.095 -0.023,0.164 -0.069,0.208c-0.046,0.044 -0.104,0.065 -0.173,0.065c-0.049,0 -0.096,-0.009 -0.143,-0.029c-0.01,-0.004 -0.015,-0.011 -0.015,-0.02c-0,-0.004 0.001,-0.008 0.003,-0.012l0.009,-0.024c0.004,-0.01 0.011,-0.015 0.021,-0.015c0.004,-0 0.008,0 0.011,0.002c0.041,0.015 0.077,0.022 0.108,0.022c0.045,0 0.084,-0.015 0.116,-0.046c0.032,-0.031 0.048,-0.081 0.048,-0.151l-0,-0.344l-0.215,0c-0.016,0 -0.024,-0.008 -0.024,-0.024l-0,-0.027c-0,-0.017 0.008,-0.025 0.024,-0.025l0.274,0Z" fill="#f5841f"/>
    <path d="M15.128,11.365c-0,0.016 -0.008,0.024 -0.025,0.024l-0.194,0l-0,0.585c-0,0.016 -0.008,0.025 -0.025,0.025l-0.034,-0c-0.016,-0 -0.024,-0.009 -0.024,-0.025l-0,-0.585l-0.195,0c-0.016,0 -0.024,-0.008 -0.024,-0.024l0,-0.025c0,-0.017 0.009,-0.025 0.025,-0.025l0.471,0c0.017,0 0.025,0.008 0.025,0.025l-0,0.025Z" fill="#d2232a"/>
    <path d="M15.67,12.139c0.002,0.005 0.003,0.01 0.003,0.013c-0,0.008 -0.005,0.014 -0.014,0.019l-0.031,0.016c-0.005,0.002 -0.009,0.003 -0.013,0.003c-0.008,-0 -0.014,-0.005 -0.02,-0.014l-0.404,-0.806c-0.002,-0.005 -0.003,-0.01 -0.003,-0.013c0,-0.008 0.005,-0.014 0.014,-0.019l0.031,-0.016c0.005,-0.002 0.009,-0.003 0.013,-0.003c0.008,0 0.015,0.005 0.02,0.014l0.404,0.806Z" fill="#d2232a"/>
    <path d="M16.166,11.315c0.016,0 0.024,0.008 0.024,0.025l0,0.395c0,0.095 -0.023,0.164 -0.069,0.208c-0.046,0.044 -0.103,0.065 -0.172,0.065c-0.049,0 -0.097,-0.009 -0.143,-0.029c-0.011,-0.004 -0.016,-0.011 -0.016,-0.02c0,-0.004 0.001,-0.008 0.003,-0.012l0.01,-0.024c0.004,-0.01 0.011,-0.015 0.02,-0.015c0.005,-0 0.008,0 0.011,0.002c0.041,0.015 0.077,0.022 0.109,0.022c0.045,0 0.083,-0.015 0.115,-0.046c0.032,-0.031 0.048,-0.081 0.048,-0.151l0,-0.344l-0.214,0c-0.017,0 -0.025,-0.008 -0.025,-0.024l0,-0.027c0,-0.017 0.008,-0.025 0.025,-0.025l0.274,0Z" fill="#f5841f"/>
    <path d="M16.728,11.315c0.016,0 0.025,0.008 0.025,0.025l-0,0.395c-0,0.095 -0.023,0.164 -0.069,0.208c-0.046,0.044 -0.104,0.065 -0.173,0.065c-0.049,0 -0.097,-0.009 -0.143,-0.029c-0.01,-0.004 -0.015,-0.011 -0.015,-0.02c-0,-0.004 0.001,-0.008 0.002,-0.012l0.01,-0.024c0.004,-0.01 0.011,-0.015 0.021,-0.015c0.004,-0 0.008,0 0.011,0.002c0.041,0.015 0.077,0.022 0.108,0.022c0.045,0 0.084,-0.015 0.116,-0.046c0.032,-0.031 0.047,-0.081 0.047,-0.151l0,-0.344l-0.214,0c-0.016,0 -0.024,-0.008 -0.024,-0.024l-0,-0.027c-0,-0.017 0.008,-0.025 0.024,-0.025l0.274,0Z" fill="#f5841f"/>
    <path d="M17.291,11.315c0.016,0 0.024,0.008 0.024,0.025l0,0.395c0,0.095 -0.023,0.164 -0.069,0.208c-0.046,0.044 -0.103,0.065 -0.173,0.065c-0.048,0 -0.096,-0.009 -0.142,-0.029c-0.011,-0.004 -0.016,-0.011 -0.016,-0.02c-0,-0.004 0.001,-0.008 0.003,-0.012l0.01,-0.024c0.004,-0.01 0.01,-0.015 0.02,-0.015c0.005,-0 0.008,0 0.011,0.002c0.041,0.015 0.077,0.022 0.109,0.022c0.045,0 0.083,-0.015 0.115,-0.046c0.032,-0.031 0.048,-0.081 0.048,-0.151l-0,-0.344l-0.214,0c-0.017,0 -0.025,-0.008 -0.025,-0.024l0,-0.027c0,-0.017 0.008,-0.025 0.025,-0.025l0.274,0Z" fill="#f5841f"/>
    <path d="M17.853,11.315c0.016,0 0.025,0.008 0.025,0.025l-0,0.395c-0,0.095 -0.023,0.164 -0.069,0.208c-0.046,0.044 -0.104,0.065 -0.173,0.065c-0.049,0 -0.097,-0.009 -0.143,-0.029c-0.01,-0.004 -0.016,-0.011 -0.016,-0.02c0,-0.004 0.001,-0.008 0.003,-0.012l0.01,-0.024c0.004,-0.01 0.011,-0.015 0.021,-0.015c0.004,-0 0.008,0 0.01,0.002c0.042,0.015 0.078,0.022 0.109,0.022c0.045,0 0.084,-0.015 0.115,-0.046c0.032,-0.031 0.048,-0.081 0.048,-0.151l0,-0.344l-0.214,0c-0.016,0 -0.024,-0.008 -0.024,-0.024l-0,-0.027c-0,-0.017 0.008,-0.025 0.024,-0.025l0.274,0Z" fill="#d2232a"/>
    <path d="M18.081,12.104c0.053,-0.01 0.101,-0.033 0.142,-0.067c0.042,-0.035 0.074,-0.078 0.098,-0.131c0.023,-0.053 0.035,-0.111 0.035,-0.176c-0,-0.064 -0.012,-0.123 -0.035,-0.176c-0.024,-0.052 -0.056,-0.096 -0.098,-0.131c-0.041,-0.034 -0.089,-0.056 -0.142,-0.067c-0.013,-0.002 -0.02,-0.009 -0.02,-0.021c0,-0.004 0.001,-0.006 0.001,-0.008l0.006,-0.028c0.003,-0.015 0.013,-0.021 0.03,-0.018c0.067,0.014 0.126,0.041 0.178,0.083c0.051,0.042 0.091,0.094 0.12,0.157c0.029,0.063 0.044,0.133 0.044,0.209c-0,0.076 -0.015,0.146 -0.044,0.209c-0.029,0.063 -0.069,0.116 -0.12,0.157c-0.052,0.042 -0.111,0.07 -0.178,0.083l-0.008,0.001c-0.011,0 -0.018,-0.006 -0.022,-0.019l-0.006,-0.028c-0,-0.002 -0.001,-0.004 -0.001,-0.007c0,-0.013 0.007,-0.02 0.02,-0.022Z" fill="#d2232a"/>
    <path d="M12.778,13.104c0.013,0.002 0.02,0.009 0.02,0.021c-0,0.004 -0.001,0.006 -0.001,0.008l-0.006,0.028c-0.003,0.015 -0.012,0.021 -0.029,0.018c-0.068,-0.014 -0.127,-0.041 -0.178,-0.083c-0.052,-0.042 -0.092,-0.094 -0.121,-0.157c-0.029,-0.063 -0.044,-0.133 -0.044,-0.209c0,-0.076 0.015,-0.146 0.044,-0.209c0.029,-0.063 0.069,-0.116 0.121,-0.157c0.051,-0.042 0.11,-0.07 0.178,-0.083l0.007,-0.001c0.011,-0 0.019,0.006 0.022,0.019l0.006,0.028c0,0.002 0.001,0.004 0.001,0.008c-0,0.012 -0.007,0.019 -0.02,0.021c-0.053,0.01 -0.101,0.033 -0.142,0.067c-0.042,0.035 -0.074,0.078 -0.097,0.131c-0.024,0.053 -0.036,0.112 -0.036,0.176c0,0.064 0.012,0.123 0.036,0.176c0.023,0.052 0.055,0.096 0.097,0.131c0.041,0.034 0.089,0.057 0.142,0.067Z" fill="#d2232a"/>
    <path d="M13.353,12.315c0.017,-0 0.025,0.008 0.025,0.024l-0,0.396c-0,0.095 -0.023,0.164 -0.069,0.208c-0.046,0.043 -0.104,0.065 -0.173,0.065c-0.049,0 -0.096,-0.01 -0.143,-0.029c-0.01,-0.004 -0.015,-0.011 -0.015,-0.021c-0,-0.003 0.001,-0.007 0.003,-0.011l0.009,-0.024c0.004,-0.01 0.011,-0.015 0.021,-0.015c0.005,-0 0.008,0 0.011,0.002c0.041,0.015 0.077,0.022 0.108,0.022c0.045,0 0.084,-0.015 0.116,-0.046c0.032,-0.031 0.048,-0.081 0.048,-0.151l-0,-0.344l-0.215,0c-0.016,0 -0.024,-0.008 -0.024,-0.024l0,-0.028c0,-0.016 0.008,-0.024 0.024,-0.024l0.274,-0Z" fill="#d2232a"/>
    <path d="M13.916,12.315c0.016,-0 0.024,0.008 0.024,0.024l0,0.396c0,0.095 -0.023,0.164 -0.069,0.208c-0.046,0.043 -0.103,0.065 -0.172,0.065c-0.049,0 -0.097,-0.01 -0.143,-0.029c-0.011,-0.004 -0.016,-0.011 -0.016,-0.021c0,-0.003 0.001,-0.007 0.003,-0.011l0.01,-0.024c0.004,-0.01 0.011,-0.015 0.02,-0.015c0.005,-0 0.009,0 0.011,0.002c0.041,0.015 0.078,0.022 0.109,0.022c0.045,0 0.083,-0.015 0.115,-0.046c0.032,-0.031 0.048,-0.081 0.048,-0.151l0,-0.344l-0.214,0c-0.016,0 -0.025,-0.008 -0.025,-0.024l0,-0.028c0,-0.016 0.009,-0.024 0.025,-0.024l0.274,-0Z" fill="#f5841f"/>
    <path d="M14.478,12.315c0.017,-0 0.025,0.008 0.025,0.024l-0,0.396c-0,0.095 -0.023,0.164 -0.069,0.208c-0.046,0.043 -0.104,0.065 -0.173,0.065c-0.049,0 -0.096,-0.01 -0.143,-0.029c-0.01,-0.004 -0.015,-0.011 -0.015,-0.021c-0,-0.003 0.001,-0.007 0.003,-0.011l0.009,-0.024c0.004,-0.01 0.011,-0.015 0.021,-0.015c0.004,-0 0.008,0 0.011,0.002c0.041,0.015 0.077,0.022 0.108,0.022c0.045,0 0.084,-0.015 0.116,-0.046c0.032,-0.031 0.048,-0.081 0.048,-0.151l-0,-0.344l-0.215,0c-0.016,0 -0.024,-0.008 -0.024,-0.024l-0,-0.028c-0,-0.016 0.008,-0.024 0.024,-0.024l0.274,-0Z" fill="#f5841f"/>
    <path d="M14.884,12.266c0.017,0 0.025,0.008 0.025,0.025l-0,0.857c-0,0.016 -0.008,0.024 -0.025,0.024l-0.034,0c-0.016,0 -0.024,-0.008 -0.024,-0.024l-0,-0.857c-0,-0.017 0.008,-0.025 0.024,-0.025l0.034,0Z" fill="#d2232a"/>
    <path d="M16.232,13.139c0.002,0.005 0.003,0.01 0.003,0.013c0,0.008 -0.004,0.014 -0.014,0.019l-0.031,0.016c-0.004,0.002 -0.009,0.003 -0.013,0.003c-0.007,-0 -0.014,-0.005 -0.019,-0.014l-0.404,-0.806c-0.002,-0.006 -0.003,-0.01 -0.003,-0.013c-0,-0.008 0.005,-0.014 0.014,-0.02l0.031,-0.015c0.004,-0.002 0.009,-0.003 0.013,-0.003c0.007,-0 0.014,0.004 0.019,0.014l0.404,0.806Z" fill="#d2232a"/>
    <path d="M16.669,12.339c0,-0.016 0.009,-0.024 0.025,-0.024l0.034,-0c0.016,-0 0.025,0.008 0.025,0.024l-0,0.452c-0,0.145 -0.066,0.217 -0.198,0.217c-0.132,0 -0.199,-0.072 -0.199,-0.217l0,-0.452c0,-0.016 0.009,-0.024 0.025,-0.024l0.034,-0c0.016,-0 0.025,0.008 0.025,0.024l-0,0.452c-0,0.053 0.008,0.09 0.026,0.111c0.018,0.021 0.047,0.032 0.089,0.032c0.042,0 0.071,-0.011 0.089,-0.032c0.017,-0.021 0.025,-0.058 0.025,-0.111l0,-0.452Z" fill="#d2232a"/>
    <path d="M17.232,12.339c-0,-0.016 0.008,-0.024 0.024,-0.024l0.035,-0c0.016,-0 0.024,0.008 0.024,0.024l0,0.452c0,0.145 -0.066,0.217 -0.198,0.217c-0.132,0 -0.198,-0.072 -0.198,-0.217l-0,-0.452c-0,-0.016 0.008,-0.024 0.024,-0.024l0.035,-0c0.016,-0 0.024,0.008 0.024,0.024l0,0.452c0,0.053 0.009,0.09 0.026,0.111c0.018,0.021 0.048,0.032 0.089,0.032c0.042,0 0.072,-0.011 0.089,-0.032c0.017,-0.021 0.026,-0.058 0.026,-0.111l-0,-0.452Z" fill="#d2232a"/>
    <path d="M17.794,12.339c0,-0.016 0.009,-0.024 0.025,-0.024l0.034,-0c0.016,-0 0.025,0.008 0.025,0.024l-0,0.452c-0,0.145 -0.066,0.217 -0.198,0.217c-0.132,0 -0.199,-0.072 -0.199,-0.217l0,-0.452c0,-0.016 0.009,-0.024 0.025,-0.024l0.034,-0c0.016,-0 0.025,0.008 0.025,0.024l-0,0.452c-0,0.053 0.008,0.09 0.026,0.111c0.018,0.021 0.047,0.032 0.089,0.032c0.042,0 0.071,-0.011 0.088,-0.032c0.018,-0.021 0.026,-0.058 0.026,-0.111l0,-0.452Z" fill="#d2232a"/>
    <path d="M18.081,13.104c0.053,-0.01 0.101,-0.033 0.142,-0.067c0.042,-0.035 0.074,-0.079 0.098,-0.131c0.023,-0.053 0.035,-0.112 0.035,-0.176c-0,-0.064 -0.012,-0.123 -0.035,-0.176c-0.024,-0.053 -0.056,-0.096 -0.098,-0.131c-0.041,-0.034 -0.089,-0.057 -0.142,-0.067c-0.013,-0.002 -0.02,-0.009 -0.02,-0.021c0,-0.004 0.001,-0.006 0.001,-0.008l0.006,-0.028c0.003,-0.015 0.013,-0.021 0.03,-0.018c0.067,0.013 0.126,0.041 0.178,0.083c0.051,0.041 0.091,0.094 0.12,0.157c0.029,0.063 0.044,0.133 0.044,0.209c-0,0.076 -0.015,0.146 -0.044,0.209c-0.029,0.063 -0.069,0.115 -0.12,0.157c-0.052,0.042 -0.111,0.069 -0.178,0.083l-0.008,0.001c-0.011,0 -0.018,-0.006 -0.022,-0.019l-0.006,-0.028c-0,-0.002 -0.001,-0.004 -0.001,-0.008c0,-0.012 0.007,-0.019 0.02,-0.021Z" fill="#d2232a"/>
    <path d="M13.341,14.104c0.013,0.002 0.019,0.009 0.019,0.021c0,0.004 -0,0.006 -0.001,0.008l-0.006,0.027c-0.002,0.016 -0.012,0.022 -0.029,0.019c-0.067,-0.014 -0.126,-0.041 -0.178,-0.083c-0.052,-0.042 -0.092,-0.094 -0.121,-0.157c-0.029,-0.063 -0.043,-0.133 -0.043,-0.209c-0,-0.076 0.014,-0.146 0.043,-0.209c0.029,-0.063 0.069,-0.116 0.121,-0.157c0.052,-0.042 0.111,-0.07 0.178,-0.083l0.008,-0.001c0.011,-0 0.018,0.006 0.021,0.019l0.006,0.028c0.001,0.002 0.001,0.004 0.001,0.007c0,0.013 -0.006,0.02 -0.019,0.022c-0.054,0.01 -0.101,0.033 -0.143,0.067c-0.041,0.035 -0.074,0.078 -0.097,0.131c-0.023,0.053 -0.035,0.111 -0.035,0.176c-0,0.064 0.012,0.123 0.035,0.176c0.023,0.052 0.056,0.096 0.097,0.13c0.042,0.035 0.089,0.057 0.143,0.068Z" fill="#d2232a"/>
    <path d="M13.857,13.339c0,-0.016 0.008,-0.024 0.025,-0.024l0.034,-0c0.016,-0 0.024,0.008 0.024,0.024l0,0.451c0,0.146 -0.066,0.218 -0.197,0.218c-0.133,0 -0.199,-0.072 -0.199,-0.218l0,-0.451c0,-0.016 0.008,-0.024 0.025,-0.024l0.034,-0c0.016,-0 0.024,0.008 0.024,0.024l0,0.451c0,0.054 0.009,0.091 0.027,0.112c0.017,0.021 0.047,0.032 0.089,0.032c0.041,-0 0.071,-0.011 0.088,-0.032c0.018,-0.021 0.026,-0.058 0.026,-0.112l0,-0.451Z" fill="#d2232a"/>
    <path d="M14.42,13.339c-0,-0.016 0.008,-0.024 0.024,-0.024l0.034,-0c0.017,-0 0.025,0.008 0.025,0.024l-0,0.451c-0,0.146 -0.066,0.218 -0.198,0.218c-0.132,0 -0.198,-0.072 -0.198,-0.218l-0,-0.451c-0,-0.016 0.008,-0.024 0.024,-0.024l0.034,-0c0.017,-0 0.025,0.008 0.025,0.024l-0,0.451c-0,0.054 0.009,0.091 0.026,0.112c0.018,0.021 0.047,0.032 0.089,0.032c0.042,-0 0.071,-0.011 0.089,-0.032c0.017,-0.021 0.026,-0.058 0.026,-0.112l-0,-0.451Z" fill="#d2232a"/>
    <path d="M14.706,14.104c0.054,-0.011 0.101,-0.033 0.143,-0.068c0.041,-0.034 0.073,-0.078 0.097,-0.13c0.023,-0.053 0.035,-0.112 0.035,-0.176c0,-0.065 -0.012,-0.123 -0.035,-0.176c-0.024,-0.053 -0.056,-0.096 -0.097,-0.131c-0.042,-0.034 -0.089,-0.057 -0.143,-0.067c-0.013,-0.002 -0.019,-0.009 -0.019,-0.022c-0,-0.003 -0,-0.005 0.001,-0.007l0.006,-0.028c0.002,-0.015 0.012,-0.022 0.029,-0.018c0.067,0.013 0.126,0.041 0.178,0.083c0.051,0.041 0.092,0.094 0.121,0.157c0.029,0.063 0.043,0.133 0.043,0.209c0,0.076 -0.014,0.146 -0.043,0.209c-0.029,0.063 -0.07,0.115 -0.121,0.157c-0.052,0.042 -0.111,0.069 -0.178,0.083l-0.008,0.001c-0.011,-0 -0.018,-0.007 -0.021,-0.02l-0.006,-0.027c-0.001,-0.002 -0.001,-0.004 -0.001,-0.008c-0,-0.012 0.006,-0.019 0.019,-0.021Z" fill="#d2232a"/>
</svg>